<svg width="364" height="276" viewBox="0 0 364 276" fill="none" xmlns="http://www.w3.org/2000/svg">
<g clip-path="url(#clip0)">
<path d="M26.4576 36.0341C36.2976 36.0341 44.2744 28.0736 44.2744 18.2538C44.2744 8.43411 36.2976 0.473633 26.4576 0.473633C16.6177 0.473633 8.64087 8.43411 8.64087 18.2538C8.64087 28.0736 16.6177 36.0341 26.4576 36.0341Z" fill="#F3F3F3" fill-opacity="0.8"/>
<path opacity="0.1" d="M34.2807 84.4486C41.7615 101.311 32.2189 120.728 20.9862 135.349C17.2266 140.252 13.0761 145.392 12.5549 151.542C11.9264 159.065 17.0312 165.98 23.0863 170.5C34.1313 178.738 49.2155 181.286 62.3606 177.128C73.7198 173.537 83.2701 165.425 94.729 162.155C113.891 156.679 134.203 165.758 150.613 177.071C162.229 185.068 174.669 194.813 188.672 193.1C198.525 191.895 206.888 184.992 212.563 176.864C215.303 172.94 217.687 168.542 221.677 165.896C224.049 164.32 226.835 163.486 229.621 162.89C255.065 157.463 282.067 170.707 307.173 163.895C324.132 159.306 337.652 145.92 346.061 130.519C354.469 115.117 358.393 97.7273 361.662 80.4978C363.985 68.2594 365.912 55.038 360.574 43.7824C354.925 31.8652 341.849 24.6406 328.708 23.2868C315.566 21.9329 302.387 25.6694 290.28 30.9396C275.154 37.5408 260.326 46.7808 243.816 46.8114C232.572 46.8344 221.849 42.528 211.099 39.2427C193.125 33.7545 174.435 31.0276 155.81 28.5111C137.977 26.1016 119.969 23.8604 102.03 25.2832C89.3368 26.289 78.1271 31.1309 65.8098 33.372C57.7809 34.833 49.7137 33.7545 41.8344 36.2022C32.1308 39.2312 22.1512 46.2492 21.6147 57.3021C21.1088 67.8234 30.3142 75.503 34.2807 84.4486Z" fill="#5762D5"/>
<path d="M230.671 99.4639C229.035 95.2072 224.816 85.2023 222.037 87.1872C218.527 89.6961 225.548 100.78 225.548 100.78C225.747 102.814 221.799 107.048 219.684 109.159C219.684 108.991 219.684 108.895 219.684 108.895C219.664 108.975 219.633 109.053 219.592 109.125L219.416 109.029C219.369 109.198 219.283 109.353 219.167 109.484C219.167 109.197 219.147 109.029 219.147 109.029C218.741 110.746 211.651 112.922 211.651 112.922C211.651 112.922 211.46 112.922 211.13 112.922C209.16 112.922 204.033 112.479 201.656 108.685C200.428 106.63 198.855 104.799 197.008 103.273C196.375 102.778 195.606 102.488 194.804 102.439C188.239 102.019 182.924 98.7029 181.862 97.9953L181.667 97.8615L181.625 97.9838C181.375 97.6282 181.134 97.2495 180.908 96.8594L180.793 96.6491C182.382 95.853 183.719 94.6333 184.656 93.1252C185.593 91.6171 186.093 89.8795 186.101 88.1051C186.101 88.0401 186.101 87.9712 186.101 87.9062C186.678 86.9101 186.982 85.7795 186.982 84.6286V83.4812L188.481 82.1503C189.167 81.5422 189.876 80.8997 190.224 80.0621C190.365 79.7232 190.427 79.3574 190.408 78.9913C190.442 78.6776 190.395 78.3605 190.271 78.0701C190.148 77.7796 189.952 77.5254 189.703 77.3314C188.554 76.5397 186.637 77.3314 185.806 76.23C185.422 75.7328 185.491 75.0558 185.304 74.4707C184.92 73.2812 183.541 72.6387 182.265 72.6196C180.988 72.6005 179.766 73.0632 178.539 73.4113C175.963 74.1412 173.274 74.3927 170.606 74.1532C169.885 74.0251 169.144 74.0511 168.433 74.2297C167.999 74.4088 167.614 74.6873 167.307 75.0428C167.001 75.3982 166.783 75.8207 166.671 76.2758C166.576 76.6179 166.519 76.9693 166.502 77.3238C165.433 78.5272 164.841 80.0792 164.839 81.6875V84.6286C164.841 86.1987 165.405 87.7163 166.429 88.9083C166.55 90.2921 166.972 91.633 167.665 92.8378C168.358 94.0425 169.305 95.0821 170.442 95.8842C170.442 95.9607 170.442 96.0384 170.442 96.1175L170.491 96.1481C170.429 97.0599 170.288 97.9646 170.07 98.852V98.657C170.07 98.657 164.705 101.506 158.956 101.575H158.324C157.19 101.537 156.087 101.95 155.258 102.722C153.556 104.321 150.575 106.849 148.743 106.849C148.359 106.849 138.687 108.735 137.085 109.048L134.091 106.122L134 106.295L133.823 106.122C133.496 106.148 133.171 106.195 132.85 106.264C131.317 104.451 128.251 100.236 127.542 94.58C127.542 94.58 134.16 87.0572 131.727 80.0468C129.65 74.0729 123.928 86.8774 122.303 90.7364C122.019 91.4098 121.983 92.162 122.203 92.859L127.58 110.153C127.068 111.494 126.921 112.945 127.155 114.36H127.094L131.01 119.374C131.01 119.374 133.957 120.629 138.568 120.606C141.947 120.611 145.295 119.97 148.432 118.717H149.341L149.168 118.782H153.832L156.798 127.735C156.699 128.549 155.265 139.92 154.116 142.463C153.775 143.313 153.62 144.226 153.663 145.14C153.724 146.897 154.011 148.639 154.518 150.322L157.116 150.227L157.017 150.43C154.817 154.931 151.142 162.951 148.969 170.447L145.186 178.096L148.022 212.402H148.137L148.356 212.437C148.662 212.483 149.122 212.551 149.728 212.628L149.505 213.01L143.255 223.337C143.255 223.337 138.798 232.443 148.658 230.725C148.658 230.725 152.303 229.67 153.79 223.459L160.274 217.389C160.274 217.389 160.577 213.358 158.741 211.748C158.626 209.886 158.335 204.447 158.784 203.139C159.324 201.556 156.484 183.347 156.484 183.347C156.484 183.347 166.747 162.102 172.963 161.574C173.419 161.542 173.876 161.602 174.309 161.75C179.417 163.41 185.606 175.736 187.427 179.572L187.511 179.748V179.783L187.58 179.932V179.974L187.641 180.104V180.138L187.695 180.257V180.284L187.741 180.379V180.418L187.776 180.49V180.521L187.799 180.574V180.605V180.639L187.818 180.685L188.626 204.57L188.707 204.612H188.745L188.676 205.105L188.324 207.572C188.324 207.572 192.781 216.942 192.509 218.128C192.236 219.313 195.479 224.067 200.07 222.748C204.661 221.428 201.929 213.989 201.929 213.989L197.506 204.895L197.311 204.489C197.751 204.219 198.167 203.911 198.552 203.568C198.552 203.568 197.203 193.804 198.552 191.692C199.901 189.581 200.307 179.947 200.307 179.947C200.307 179.947 199.361 173.35 197.74 170.447L190.949 146.257C192.984 148.146 194.567 148.884 195.889 148.835H196.107C196.688 148.846 197.262 148.703 197.77 148.422C198.043 148.268 198.3 148.087 198.537 147.882C198.582 147.844 198.624 147.801 198.663 147.756V147.756C200.553 146.173 196.502 139.969 194.206 136.283C191.995 132.726 195.042 123.061 195.272 122.342C195.476 122.192 195.696 122.064 195.927 121.96C196.402 121.757 196.912 121.646 197.429 121.635C199.629 121.711 202.335 122.973 205.684 123.608C208.012 124.003 210.371 124.186 212.732 124.155H212.87C213.809 124.155 214.66 124.136 215.35 124.109C215.979 124.084 216.595 123.918 217.151 123.623V123.623C217.627 123.346 218.059 122.998 218.431 122.591L224.31 115.963L224.156 116.036C224.441 115.284 224.441 114.454 224.156 113.703L230.369 102.994C230.682 102.466 230.872 101.875 230.925 101.264C230.977 100.652 230.891 100.037 230.671 99.4639V99.4639Z" fill="url(#paint0_linear)"/>
<path d="M160.876 216.483L154.618 222.468C153.184 228.587 149.662 229.624 149.662 229.624C140.147 231.314 144.447 222.357 144.447 222.357L150.483 212.165L151.226 210.907C151.226 210.907 155.53 209.606 158.396 210.386C158.758 210.485 159.093 210.666 159.374 210.914C161.171 212.471 160.876 216.483 160.876 216.483Z" fill="#444176"/>
<path d="M199.464 221.818C195.03 223.118 191.903 218.437 192.183 217.263C192.462 216.089 188.132 206.868 188.132 206.868L188.469 204.436L188.783 202.183L196.065 202.703L196.751 204.141L201.02 213.11C201.02 213.11 203.898 220.518 199.464 221.818Z" fill="#444176"/>
<path opacity="0.1" d="M159.443 211.932C158.757 213.106 153.196 212.513 150.486 212.146L151.23 210.888C151.23 210.888 155.534 209.587 158.4 210.368C158.762 210.467 159.096 210.647 159.377 210.895C159.416 211.53 159.443 211.932 159.443 211.932Z" fill="black"/>
<path opacity="0.1" d="M196.759 204.133C193.03 206.611 189.059 204.737 188.461 204.428L188.776 202.175L196.057 202.695L196.759 204.133Z" fill="black"/>
<path d="M197.77 191.115C196.467 193.195 197.77 202.825 197.77 202.825C193.467 206.73 188.385 203.866 188.385 203.866L187.618 180.318C187.618 180.318 179.145 160.932 173.147 161.452C167.15 161.972 157.243 182.919 157.243 182.919C157.243 182.919 159.979 200.871 159.458 202.424C158.937 203.977 159.458 211.53 159.458 211.53C158.546 213.09 149.03 211.53 149.03 211.53L146.294 177.702L149.927 170.152C152.015 162.764 155.564 154.854 157.687 150.418C158.741 148.211 159.446 146.865 159.446 146.865L166.383 145.423L188.898 140.765L196.989 170.152C198.552 173.013 199.464 179.519 199.464 179.519C199.464 179.519 199.073 189.034 197.77 191.115Z" fill="#565387"/>
<g opacity="0.1">
<path opacity="0.1" d="M190.47 203.865L189.703 180.318C189.703 180.318 181.23 160.931 175.232 161.451C174.964 161.477 174.7 161.537 174.446 161.627C180.295 163.566 187.618 180.318 187.618 180.318L188.385 203.865C189.984 204.678 191.786 205.007 193.57 204.81C192.489 204.68 191.439 204.36 190.47 203.865V203.865Z" fill="black"/>
<path opacity="0.1" d="M151.099 211.541L148.363 177.713L152.012 170.152C154.1 162.763 157.649 154.854 159.772 150.418C160.826 148.211 161.531 146.865 161.531 146.865L168.468 145.423L189.021 141.159L188.91 140.749L166.383 145.423L159.446 146.865C159.446 146.865 158.741 148.211 157.687 150.418C155.557 154.854 152.015 162.779 149.927 170.152L146.278 177.698L149.015 211.526C149.015 211.526 154.211 212.379 157.293 212.192C155.219 212.079 153.152 211.862 151.099 211.541V211.541Z" fill="black"/>
</g>
<path d="M135.245 106.746C135.245 106.746 127.814 107.128 128.856 114.942L130.941 115.202L134.068 111.821L135.632 108.96V108.31L135.245 106.746Z" fill="#CED2DF"/>
<path opacity="0.1" d="M135.245 106.746C135.245 106.746 127.814 107.128 128.856 114.942L130.941 115.202L134.068 111.821L135.632 108.96V108.31L135.245 106.746Z" fill="black"/>
<path d="M217.913 109.606C217.913 109.606 224.045 112.857 222.477 116.632L220.523 117.397L217.917 115.966L217.534 112.586L217.794 110.245L217.913 109.606Z" fill="#CED2DF"/>
<path opacity="0.1" d="M217.913 109.606C217.913 109.606 224.045 112.857 222.477 116.632L220.523 117.397L217.917 115.966L217.534 112.586L217.794 110.245L217.913 109.606Z" fill="black"/>
<path d="M178.543 76.0388H173.327C168.864 76.0388 165.245 79.6501 165.245 84.1047C165.245 88.5594 168.864 92.1707 173.327 92.1707H178.543C183.007 92.1707 186.626 88.5594 186.626 84.1047C186.626 79.6501 183.007 76.0388 178.543 76.0388Z" fill="#88455E"/>
<path d="M135.195 107.851L130.631 115.117L130.248 113.825L124.047 93.6619C123.835 92.9745 123.869 92.235 124.143 91.5699C125.71 87.7683 131.236 75.1244 133.241 81.0333C135.586 87.9174 129.198 95.3447 129.198 95.3447C129.926 101.372 133.317 105.74 134.651 107.254C134.988 107.648 135.195 107.851 135.195 107.851Z" fill="#EC8C9C"/>
<path d="M216.936 110.972C216.936 110.972 224.106 104.206 223.834 101.476C223.834 101.476 217.055 90.5489 220.447 88.0897C223.129 86.1316 227.203 95.9988 228.782 100.194C228.991 100.753 229.074 101.351 229.027 101.945C228.98 102.54 228.804 103.117 228.51 103.636L219.941 118.778L216.936 110.972Z" fill="#EC8C9C"/>
<path d="M170.522 92.1091C170.522 92.1091 171.825 100.435 168.046 103.56C164.268 106.684 178.869 106.665 178.869 106.665L184.085 101.85C184.085 101.85 178.087 96.2548 179.911 92.0938L170.522 92.1091Z" fill="#EC8C9C"/>
<path opacity="0.1" d="M170.261 101.606C170.261 101.606 175.868 105.77 181.471 101.085L190.596 119.952L190.075 142.979C190.075 142.979 171.17 152.736 163.348 146.754C155.526 140.773 162.045 137.648 162.045 137.648L160.22 119.956L162.175 108.505C162.175 108.505 165.693 103.04 165.958 103.04C166.222 103.04 170.261 101.606 170.261 101.606Z" fill="black"/>
<path d="M170.261 101.345C170.261 101.345 175.868 105.518 181.475 100.825L190.6 119.691L190.079 142.719C190.079 142.719 171.173 152.475 163.352 146.494C155.53 140.512 162.049 137.388 162.049 137.388L160.224 119.695L162.179 108.245C162.179 108.245 165.697 102.779 165.961 102.779C166.226 102.779 170.261 101.345 170.261 101.345Z" fill="#EBF1F6"/>
<path opacity="0.1" d="M170.261 99.3987C170.261 99.3987 164.946 102.42 159.174 102.271C158.633 102.254 158.094 102.345 157.588 102.538C157.082 102.731 156.619 103.022 156.227 103.395C154.583 104.971 151.705 107.465 149.923 107.465C149.54 107.465 138.449 109.675 138.449 109.675L135.517 106.749C135.517 106.749 131.148 115.271 129.063 114.88L132.846 119.826C132.846 119.826 140.016 122.946 149.402 119.175H154.878L157.745 128.021C157.745 128.021 156.311 139.992 155.139 142.593C153.966 145.194 155.522 150.269 155.522 150.269L165.82 149.886C165.82 149.886 166.341 144.811 167.123 144.15C167.904 143.488 164.386 121.122 164.386 121.122C164.386 121.122 162.041 108.501 170.645 103.95L170.261 99.3987Z" fill="black"/>
<path opacity="0.1" d="M166.379 145.439C166 146.982 165.73 148.55 165.57 150.131L157.687 150.43C158.741 148.223 159.446 146.877 159.446 146.877L166.379 145.439Z" fill="black"/>
<path opacity="0.1" d="M135.195 107.851L130.631 115.118L130.248 113.825C131.922 112.165 133.885 108.696 134.666 107.251C134.988 107.648 135.195 107.851 135.195 107.851Z" fill="black"/>
<path d="M170.261 99.3987C170.261 99.3987 164.681 102.42 158.914 102.271C158.372 102.254 157.833 102.345 157.327 102.538C156.821 102.731 156.358 103.022 155.966 103.395C154.322 104.971 151.444 107.465 149.662 107.465C149.279 107.465 138.188 109.675 138.188 109.675L135.245 106.746C135.245 106.746 130.876 115.267 128.791 114.877L132.574 119.822C132.574 119.822 139.744 122.943 149.129 119.172H154.606L157.473 128.014C157.473 128.014 156.039 139.985 154.867 142.585C153.694 145.186 155.25 150.261 155.25 150.261L165.547 149.879C165.547 149.879 166.069 144.803 166.85 144.142C167.632 143.48 164.114 121.114 164.114 121.114C164.114 121.114 161.769 108.493 170.372 103.942L170.261 99.3987Z" fill="#CED2DF"/>
<path opacity="0.1" d="M181.475 98.6107C181.475 98.6107 186.794 102.657 193.896 103.124C194.673 103.172 195.416 103.46 196.023 103.946C197.814 105.462 199.331 107.273 200.51 109.3C203.377 113.985 210.417 113.465 210.417 113.465C210.417 113.465 217.262 111.32 217.653 109.641C217.653 109.641 217.848 118.82 222.152 116.601L216.491 123.111C216.135 123.522 215.697 123.856 215.206 124.092C214.715 124.328 214.181 124.461 213.636 124.484C211.509 124.568 207.815 124.595 204.695 123.99C200.001 123.08 196.613 120.869 194.137 122.82C194.137 122.82 190.88 132.966 193.095 136.611C195.31 140.256 199.226 146.368 197.398 147.932C195.57 149.496 193.355 149.362 189.707 145.591C186.058 141.82 185.664 135.445 185.664 135.445L186.576 119.053C186.576 119.053 183.058 106.692 179.677 104.221L181.475 98.6107Z" fill="black"/>
<path opacity="0.1" d="M222.669 116.437L216.994 122.973C216.616 123.407 216.15 123.754 215.625 123.99V123.99C215.159 124.2 214.657 124.318 214.146 124.338C212.019 124.426 208.325 124.453 205.205 123.845C200.813 122.992 197.563 121.003 195.134 122.346C194.962 122.44 194.797 122.549 194.643 122.671C194.643 122.671 191.386 132.817 193.601 136.462C195.816 140.107 199.733 146.218 197.905 147.783C197.599 148.051 197.255 148.274 196.885 148.444C195.245 149.182 193.21 148.544 190.213 145.442C186.565 141.667 186.17 135.296 186.17 135.296L187.082 118.904C187.082 118.904 183.564 106.543 180.184 104.072L181.674 98.7369C182.701 99.433 187.829 102.703 194.168 103.12C194.945 103.169 195.688 103.456 196.295 103.942C198.086 105.459 199.603 107.269 200.783 109.296C203.649 113.982 210.689 113.461 210.689 113.461C212.377 112.924 214.025 112.27 215.622 111.503V111.503C216.622 111.014 217.503 110.478 217.921 109.973C218.038 109.842 218.124 109.685 218.17 109.514C218.17 109.514 218.369 118.647 222.669 116.437Z" fill="black"/>
<path d="M222.409 116.567L216.737 123.111C216.425 123.47 216.051 123.77 215.633 123.998V123.998C215.097 124.288 214.502 124.452 213.893 124.476C211.766 124.564 208.072 124.591 204.952 123.983C200.717 123.161 197.54 121.279 195.145 122.354C194.871 122.472 194.614 122.625 194.379 122.809C194.379 122.809 191.121 132.955 193.336 136.6C195.551 140.245 199.468 146.356 197.64 147.921C197.404 148.124 197.147 148.302 196.874 148.452C195.187 149.382 193.102 148.835 189.941 145.58C186.292 141.805 185.898 135.433 185.898 135.433L186.81 119.042C186.81 119.042 183.292 106.681 179.911 104.21L181.475 98.6147L181.663 98.7448C182.69 99.4408 187.818 102.711 194.156 103.128C194.933 103.176 195.676 103.464 196.283 103.95C198.074 105.466 199.592 107.277 200.771 109.304C203.638 113.989 210.678 113.469 210.678 113.469C212.366 112.932 214.014 112.278 215.61 111.511V111.511C216.794 110.907 217.76 110.245 217.909 109.641C217.909 109.641 217.909 109.759 217.909 109.97C218.024 111.549 218.599 118.521 222.409 116.567Z" fill="#CED2DF"/>
<path opacity="0.1" d="M180.026 92.3043H170.445C170.656 93.8245 170.716 95.3617 170.625 96.8937C172.088 97.9208 173.803 98.5311 175.587 98.6591C177.371 98.7871 179.156 98.4281 180.751 97.6204C179.831 95.9223 179.271 93.9948 180.026 92.3043Z" fill="black"/>
<path d="M176.259 98.4807C181.514 98.4807 185.775 94.2291 185.775 88.9845C185.775 83.7398 181.514 79.4882 176.259 79.4882C171.004 79.4882 166.743 83.7398 166.743 88.9845C166.743 94.2291 171.004 98.4807 176.259 98.4807Z" fill="#EC8C9C"/>
<path opacity="0.1" d="M174.282 87.2942C175.343 87.1679 176.405 86.7931 177.451 87.0035C178.401 87.1947 179.21 87.8487 180.16 88.0476C181.992 88.43 183.694 87.0838 185.077 85.8294L188.067 83.1139C188.73 82.5135 189.412 81.8824 189.753 81.0563C190.094 80.2303 189.975 79.1441 189.247 78.6239C188.155 77.859 186.273 78.6239 185.484 77.5378C185.127 77.0482 185.181 76.3904 184.997 75.8053C184.614 74.635 183.295 73.9963 182.061 73.981C180.827 73.9657 179.647 74.417 178.466 74.7459C175.98 75.4657 173.38 75.7135 170.802 75.4764C170.106 75.3492 169.391 75.374 168.705 75.549C168.284 75.7287 167.91 76.0047 167.614 76.3548C167.319 76.7048 167.11 77.1192 167.004 77.5646C166.414 79.6451 167.422 82.9992 168.433 84.8617C169.445 86.7243 172.262 87.5427 174.282 87.2942Z" fill="black"/>
<path d="M174.282 87.034C175.343 86.9078 176.405 86.533 177.451 86.7433C178.401 86.9346 179.21 87.5886 180.16 87.7874C181.992 88.1699 183.694 86.8237 185.077 85.5692L188.067 82.8538C188.73 82.2533 189.412 81.6223 189.753 80.7962C190.094 79.9701 189.975 78.8839 189.247 78.3638C188.155 77.5989 186.273 78.3638 185.484 77.2776C185.127 76.7881 185.181 76.1303 184.997 75.5451C184.614 74.3748 183.295 73.7361 182.061 73.7208C180.827 73.7055 179.647 74.1568 178.466 74.4857C175.98 75.2056 173.38 75.4534 170.802 75.2162C170.106 75.0891 169.391 75.1139 168.705 75.2889C168.284 75.4686 167.91 75.7446 167.614 76.0946C167.319 76.4447 167.11 76.8591 167.004 77.3044C166.414 79.385 167.422 82.7391 168.433 84.6016C169.445 86.4642 172.262 87.2635 174.282 87.034Z" fill="#88455E"/>
<path opacity="0.1" d="M157.684 128.083C157.684 128.083 159.768 128.343 160.811 129.643C161.853 130.944 163.677 131.334 163.677 131.334" fill="black"/>
<path opacity="0.1" d="M138.909 110.907C138.909 110.907 140.61 114.697 139.56 115.079C138.51 115.462 138.909 118.2 138.909 118.2" fill="black"/>
<g opacity="0.1">
<path opacity="0.1" d="M139.495 109.607C139.495 109.607 150.574 107.396 150.958 107.396C152.744 107.396 155.618 104.902 157.262 103.327C157.762 102.849 158.377 102.507 159.048 102.336H158.906C158.365 102.319 157.825 102.41 157.319 102.603C156.813 102.796 156.351 103.087 155.959 103.461C154.315 105.036 151.437 107.53 149.655 107.53C149.344 107.53 142.254 108.933 139.376 109.503L139.495 109.607Z" fill="black"/>
<path opacity="0.1" d="M170.277 99.9457V99.46C167.611 100.816 164.743 101.732 161.784 102.172C164.72 101.911 167.591 101.158 170.277 99.9457V99.9457Z" fill="black"/>
<path opacity="0.1" d="M156.576 150.196C156.576 150.196 155.012 145.121 156.193 142.52C157.373 139.919 158.799 127.949 158.799 127.949L155.94 119.102H150.448L150.115 119.233H154.618L157.473 128.082C157.473 128.082 156.039 140.053 154.867 142.654C153.694 145.255 155.25 150.33 155.25 150.33L165.548 149.947V149.867L156.576 150.196Z" fill="black"/>
</g>
<g opacity="0.1">
<path opacity="0.1" d="M197.77 145.84C197.534 146.043 197.277 146.221 197.004 146.372C195.318 147.301 193.233 146.754 190.071 143.499C187.174 140.505 186.331 135.85 186.104 134.087L186.028 135.433C186.028 135.433 186.411 141.809 190.071 145.58C193.233 148.846 195.318 149.382 197.004 148.452C197.277 148.302 197.534 148.124 197.77 147.921C198.318 147.45 198.349 146.567 198.061 145.465C197.99 145.608 197.891 145.736 197.77 145.84V145.84Z" fill="black"/>
<path opacity="0.1" d="M220.565 116.762L216.875 121.019C216.563 121.378 216.189 121.679 215.771 121.906V121.906C215.236 122.196 214.64 122.36 214.031 122.384C211.904 122.472 208.21 122.499 205.09 121.891C200.855 121.069 197.678 119.187 195.283 120.262C195.01 120.381 194.752 120.533 194.517 120.717C194.517 120.717 192.413 127.272 192.735 131.735C192.984 127.563 194.517 122.797 194.517 122.797C194.752 122.614 195.01 122.461 195.283 122.342C197.682 121.267 200.855 123.149 205.09 123.971C208.21 124.576 211.9 124.549 214.031 124.465C214.64 124.441 215.236 124.277 215.771 123.987C216.188 123.762 216.562 123.466 216.875 123.111L222.551 116.575C222.257 116.757 221.925 116.869 221.58 116.902C221.236 116.934 220.888 116.886 220.565 116.762V116.762Z" fill="black"/>
</g>
<path d="M53.8987 163.608C53.9441 163.652 54.0024 163.68 54.065 163.689C54.1276 163.697 54.1913 163.685 54.2465 163.654C54.1289 163.656 54.0117 163.641 53.8987 163.608V163.608Z" fill="url(#paint1_linear)"/>
<path d="M92.9545 100.255C92.2647 100.056 91.2798 99.7314 90.0956 99.3184C91.3262 97.7384 92.2267 95.9281 92.7438 93.9946L92.6441 94.0329C92.6786 93.9143 92.7131 93.7996 92.7438 93.6772C90.4712 94.5989 87.9571 93.0385 86.3552 91.0344C84.7532 89.0304 83.6725 86.5444 81.9173 84.701C81.1858 83.9677 80.3991 83.2913 79.5642 82.6779C79.0468 82.2954 78.4911 81.8632 77.8588 81.8441C76.8355 81.8135 76.0346 82.8155 75.0496 83.11C74.4016 83.2556 73.7267 83.2305 73.0913 83.0374C70.5504 82.456 68.1092 81.3813 65.5147 81.0983C64.1266 80.9272 62.7176 81.0858 61.4025 81.5611C60.0995 82.0544 59.5055 83.0374 58.4516 83.8252C57.3019 84.6704 55.0561 84.6513 53.7186 84.8005C52.0956 84.9855 50.4613 85.0532 48.8285 85.0032C47.8901 84.922 46.9453 84.9567 46.0155 85.1064C44.0725 85.5309 42.5127 87.0722 41.0564 88.5485C40.6589 88.8825 40.3728 89.3294 40.2363 89.8297C40.2176 89.9706 40.2176 90.1133 40.2363 90.2542C40.2216 90.6398 40.2882 91.0242 40.4317 91.3825C40.88 92.71 41.5135 93.9679 42.3134 95.119C42.9074 95.9681 43.6011 96.7674 43.9383 97.7733C44.0982 98.2677 44.1822 98.7835 44.1874 99.3031C44.1709 99.8548 44.1133 100.404 44.015 100.948C43.7578 102.449 43.335 103.918 42.7541 105.327C42.3935 106.05 42.1454 106.824 42.0183 107.621C42.0074 107.784 42.0074 107.948 42.0183 108.111C41.9225 110.635 44.4749 112.452 44.9693 114.961C45.0099 115.169 45.0342 115.38 45.0421 115.592C44.9884 117.156 44.0955 118.686 42.7771 119.294C42.8921 119.34 43.0109 119.378 43.1297 119.416C43.0163 119.487 42.8986 119.551 42.7771 119.607C43.0186 119.699 43.2638 119.78 43.5129 119.845C42.0147 121.147 40.7554 122.7 39.7917 124.434C35.3576 132.672 5.32705 148.808 5.32705 148.808L5.77161 149.06L5.41137 149.293C2.81301 151.018 -3.28431 156.048 2.22666 162.408C2.22666 162.408 6.53042 155.631 9.54651 152.743C9.68064 152.613 9.81478 152.495 9.92975 152.384C9.99601 152.485 10.0404 152.6 10.0602 152.72C10.08 152.839 10.0747 152.962 10.0447 153.08L29.7892 142.008C29.7892 142.008 36.8063 137.105 38.7646 135.999C40.143 135.142 41.643 134.498 43.214 134.087L42.9841 134.183C43.7223 133.98 44.4834 133.872 45.249 133.861C48.7441 133.915 52.5306 136.47 53.7761 146.586C55.447 160.132 54.6728 162.576 54.1363 162.909C54.0702 162.904 54.0047 162.892 53.9409 162.874C53.9574 162.889 53.9754 162.902 53.9945 162.913C53.9218 162.907 53.8499 162.895 53.7799 162.874C53.8185 162.91 53.8656 162.935 53.9165 162.947C53.9675 162.959 54.0208 162.957 54.0712 162.943C54.1074 162.954 54.1456 162.957 54.1832 162.953C54.2208 162.948 54.2571 162.936 54.2896 162.916C54.3777 162.922 54.466 162.922 54.5541 162.916C54.5541 163.041 54.5451 163.169 54.5272 163.299C54.5004 163.299 54.3701 163.372 54.5272 163.379C54.4851 164.144 54.4889 164.974 54.5272 165.842C52.7912 165.938 51.0551 166.041 49.5451 166.133L49.6793 165.418L49.7406 165.096C51.0742 164.989 52.3389 164.599 52.4884 163.521C52.8141 161.149 49.5528 159.884 46.7781 159.727C44.0035 159.57 27.3633 160.675 27.3633 160.675C27.3633 160.675 24.8684 163.899 32.7823 164.882C33.0173 165.005 33.2613 165.132 33.5143 165.265C36.6147 167.028 40.8188 170.275 42.8346 171.873L43.1144 172.095L42.2099 172.83C47.1039 173.935 51.8369 192.599 54.4467 201.131C57.0566 209.664 62.7669 209.354 67.4998 208.088C71.9339 206.902 72.482 194.052 72.5548 192.438V192.273L80.4418 201.995L81.0397 202.734C81.2696 202.853 81.497 202.966 81.7218 203.07C87.6927 205.904 94.2882 200.469 92.4142 194.274C90.5171 188.028 87.5739 178.792 85.6117 174.887C83.9676 171.617 81.8445 166.186 80.5568 162.786C80.724 162.719 80.8866 162.641 81.0435 162.553C81.0435 162.553 81.0128 162.4 80.963 162.121L81.0435 162.079C81.0435 162.079 79.1273 152.242 79.043 145.251C79.043 145.129 79.043 145.001 79.043 144.868C79.043 144.792 79.043 144.715 79.043 144.643C80.4686 144.318 81.3731 144.192 81.3731 144.192L81.3999 143.886L81.2351 143.92L82.0284 134.86C82.0284 134.86 84.941 128.675 82.7106 126.102C82.0325 125.349 81.5797 124.421 81.4037 123.424C81.0205 121.057 81.4037 117.106 86.5966 113.825C94.591 108.765 97.7105 104.646 97.7105 104.646C97.7105 104.646 97.8485 101.693 92.9545 100.255ZM77.077 106.543V102.355C78.5601 102.282 80.0739 102.454 81.5647 102.355C82.2965 102.304 83.0217 102.182 83.73 101.992L84.0902 102.24C81.9091 103.915 79.5586 105.357 77.077 106.543V106.543ZM54.4084 172.187C54.9948 172.592 55.585 173.013 56.1636 173.438C56.5239 175.503 56.842 176.96 56.865 177.063C56.2036 175.364 55.381 173.731 54.4084 172.187V172.187Z" fill="url(#paint2_linear)"/>
<path d="M67.0783 168.745L66.7334 170.615L66.4689 172.046L65.9861 174.662L61.3029 177.932C61.3029 177.932 60.8813 177.572 60.1838 177.002C58.2676 175.427 54.2321 172.229 51.2697 170.501C50.5084 170.015 49.6846 169.636 48.8208 169.372L67.0783 168.745Z" fill="#FFBDC6"/>
<path opacity="0.1" d="M67.0782 168.745L66.7333 170.615C65.701 170.673 64.6655 170.62 63.6444 170.459L52.7183 170.615C52.2009 170.585 51.718 170.543 51.2658 170.497C50.5045 170.012 49.6807 169.632 48.8169 169.369L67.0782 168.745Z" fill="black"/>
<path d="M63.6446 170.152C63.6446 170.152 69.1095 171.085 69.42 168.749C69.7304 166.412 66.6108 165.18 63.9626 165.004C61.3145 164.829 45.3832 165.945 45.3832 165.945C45.3832 165.945 42.5741 169.682 52.7184 170.305L63.6446 170.152Z" fill="#7679B4"/>
<path opacity="0.1" d="M67.0783 168.745L66.7334 170.615L66.4689 172.046L65.9861 174.662L61.3029 177.932C61.3029 177.932 60.8813 177.572 60.1838 177.002C58.2676 175.427 54.2321 172.229 51.2697 170.501C50.5084 170.015 49.6846 169.636 48.8208 169.372L67.0783 168.745Z" fill="black"/>
<path opacity="0.1" d="M67.0782 168.745L66.7333 170.615C65.701 170.673 64.6655 170.62 63.6444 170.459L52.7183 170.615C52.2009 170.585 51.718 170.543 51.2658 170.497C50.5045 170.012 49.6807 169.632 48.8169 169.369L67.0782 168.745Z" fill="black"/>
<path opacity="0.1" d="M63.6446 170.152C63.6446 170.152 69.1095 171.085 69.42 168.749C69.7304 166.412 66.6108 165.18 63.9626 165.004C61.3145 164.829 45.3832 165.945 45.3832 165.945C45.3832 165.945 42.5741 169.682 52.7184 170.305L63.6446 170.152Z" fill="black"/>
<path d="M75.5823 93.352H47.0195V127.153H75.5823V93.352Z" fill="#A66477"/>
<path opacity="0.1" d="M75.5823 93.352H47.0195V127.153H75.5823V93.352Z" fill="black"/>
<path d="M13.5398 151.221C13.0684 151.34 12.4706 151.791 11.7999 152.449C8.91412 155.294 4.79813 161.968 4.79813 161.968C-0.475229 155.703 5.36149 150.751 7.86404 149.049C8.46956 148.636 8.87579 148.414 8.87579 148.414L13.5398 151.221Z" fill="#FFBDC6"/>
<path d="M66.768 104.023C66.768 104.023 68.1745 113.837 73.0109 116.173C77.8474 118.51 66.768 122.87 66.768 122.87L51.6262 117.263C51.6262 117.263 60.2108 114.46 58.4939 106.203L66.768 104.023Z" fill="#FFBDC6"/>
<path d="M50.5492 163.058L50.2043 164.928L49.9399 166.358L49.457 168.974L44.7738 172.244C44.7738 172.244 44.3523 171.885 43.6548 171.315C41.7386 169.739 37.7031 166.542 34.7406 164.813C33.9794 164.328 33.1555 163.949 32.2917 163.685L50.5492 163.058Z" fill="#FFBDC6"/>
<path opacity="0.1" d="M50.5492 163.058L50.2042 164.928C49.1719 164.985 48.1365 164.933 47.1153 164.771L36.1892 164.928C35.6718 164.898 35.189 164.855 34.7367 164.81C33.9755 164.324 33.1516 163.945 32.2878 163.681L50.5492 163.058Z" fill="black"/>
<path d="M47.1001 164.461C47.1001 164.461 52.565 165.395 52.8755 163.058C53.1859 160.721 50.0663 159.474 47.4105 159.321C44.7546 159.168 28.8349 160.254 28.8349 160.254C28.8349 160.254 26.0258 163.991 36.1701 164.614L47.1001 164.461Z" fill="#7679B4"/>
<path opacity="0.1" d="M49.9245 166.363L49.4416 168.978L44.7585 172.248C44.7585 172.248 44.3369 171.889 43.6394 171.319L49.8325 166.252L49.9245 166.363Z" fill="black"/>
<path d="M80.8251 202.022C80.6105 201.918 80.3933 201.807 80.1736 201.689L79.6026 200.963L72.0604 191.401V191.57C72.0106 193.157 71.4664 205.816 67.2278 206.982C62.7017 208.229 57.2368 208.539 54.7419 200.129C52.247 191.719 47.7171 173.338 43.0339 172.248L49.9782 166.561C49.9782 166.561 54.5771 171.915 56.455 177.071C56.386 176.742 53.2089 161.937 55.8303 159.321H78.6176C78.6176 159.321 82.1281 169.319 84.5502 174.275C86.428 178.123 89.2448 187.217 91.0652 193.371C92.8664 199.46 86.5737 204.814 80.8251 202.022Z" fill="#7679B4"/>
<path opacity="0.1" d="M80.1889 162.121C76.6746 164.198 61.2224 163.352 56.1867 163.016L54.8185 162.916C54.6691 162.916 54.8415 162.832 54.8415 162.832L54.9833 161.417L58.7275 151.917L78.7863 140.321C78.38 141.541 78.2421 143.411 78.2765 145.557C78.3762 152.433 80.1889 162.121 80.1889 162.121Z" fill="black"/>
<path d="M80.1888 161.658C76.6745 163.735 61.2223 162.889 56.1866 162.553L54.8184 162.453H54.5923L54.8414 162.388L56.0754 162.063L58.7274 151.469L78.7862 139.866C78.3799 141.086 78.242 142.956 78.2764 145.102C78.3761 151.967 80.1888 161.658 80.1888 161.658Z" fill="#F2F1F2"/>
<path opacity="0.1" d="M78.2765 145.086C74.1988 146.023 65.2234 148.781 61.7742 155.412C59.4748 159.841 57.5586 161.742 56.1904 162.537L54.8223 162.438L54.8453 162.354L56.0793 162.029L58.7313 151.435L78.79 139.831C78.3761 141.086 78.242 142.941 78.2765 145.086Z" fill="black"/>
<path opacity="0.1" d="M8.85672 148.418L13.5399 151.221C13.0685 151.34 12.4707 151.791 11.8 152.449C11.4168 151.301 8.95636 149.726 7.84497 149.053C8.45049 148.64 8.85672 148.418 8.85672 148.418Z" fill="black"/>
<path opacity="0.1" d="M53.9974 162.633C53.9453 162.662 53.8853 162.674 53.8261 162.666C53.767 162.659 53.7118 162.632 53.6687 162.591C53.7756 162.621 53.8863 162.635 53.9974 162.633V162.633Z" fill="black"/>
<path d="M64.5794 115.549C64.5794 115.549 60.3638 116.016 57.3976 112.903C57.3976 112.903 44.9116 116.486 40.696 124.587C36.4804 132.687 7.7605 148.574 7.7605 148.574C7.7605 148.574 12.7426 151.378 12.2865 152.781L31.1725 141.877C31.1725 141.877 37.883 137.047 39.7571 135.957C41.6311 134.867 51.9326 128.17 54.117 146.394C56.3015 164.618 54.117 162.457 54.117 162.457C54.117 162.457 57.2404 163.547 61.7818 154.808C66.3232 146.069 80.3574 144.061 80.3574 144.061L81.1239 134.882C81.1239 134.882 83.91 128.794 81.7754 126.254C81.1244 125.507 80.6921 124.595 80.526 123.619C80.1696 121.286 80.526 117.397 85.5081 114.165C93.1729 109.193 96.1238 105.131 96.1238 105.131C96.1238 105.131 96.2809 102.171 91.5978 100.772C86.9146 99.3717 67.8715 91.738 67.8715 91.738L67.2468 94.3846L82.2314 104.978C82.2314 104.978 74.7391 111.052 68.8181 110.899C68.7951 110.872 69.8873 115.393 64.5794 115.549Z" fill="#565388"/>
<path opacity="0.1" d="M67.4729 108.295C67.1038 107.04 66.8158 105.762 66.6106 104.47L58.3365 106.665C58.6987 108.241 58.6339 109.885 58.1487 111.427C59.8397 111.877 61.6262 111.82 63.2846 111.262C64.9431 110.704 66.3999 109.671 67.4729 108.291V108.295Z" fill="black"/>
<path d="M60.6017 111.266C65.5164 111.266 69.5005 107.291 69.5005 102.386C69.5005 97.4813 65.5164 93.5054 60.6017 93.5054C55.687 93.5054 51.7029 97.4813 51.7029 102.386C51.7029 107.291 55.687 111.266 60.6017 111.266Z" fill="#FFBDC6"/>
<path opacity="0.1" d="M65.3307 82.1882C67.7988 82.4673 70.148 83.5267 72.5778 84.1004C73.1849 84.2904 73.8318 84.3155 74.4518 84.1731C75.3946 83.8824 76.1611 82.8957 77.1345 82.9263C77.7362 82.9263 78.2842 83.3546 78.7671 83.7486C79.567 84.3542 80.3191 85.0204 81.0167 85.7411C82.6914 87.5578 83.7338 90.0055 85.263 91.9789C86.7921 93.9524 89.2027 95.4899 91.3756 94.5834C89.9002 100.32 85.056 104.707 79.821 105.063C77.7323 105.204 75.6054 104.772 73.5704 105.384C73.0661 105.589 72.5339 105.718 71.9914 105.766C70.8417 105.766 69.8913 104.699 69.1631 103.663C67.4615 101.223 66.0972 98.4539 64.181 96.2318C63.5487 95.4975 62.8014 94.7976 61.9084 94.6638C61.0155 94.5299 60.1915 94.9544 59.3944 95.3675C58.0798 96.0482 56.7347 96.752 55.7153 97.9146C54.6959 99.0773 54.052 100.817 54.4736 102.393C54.6997 103.242 55.2209 104.007 55.2401 104.898C55.2401 106.313 54.006 107.35 53.7569 108.723C53.702 109.302 53.6816 109.885 53.6956 110.467C53.5845 112.356 52.3504 113.909 51.0551 115.091C50.553 115.553 49.9935 116.047 49.8479 116.762C49.7482 117.248 49.8479 117.764 49.7827 118.257C49.5949 119.485 48.3686 120.105 47.284 120.265C46.0173 120.45 44.7241 120.297 43.5359 119.821C45.0689 119.106 45.9848 117.068 45.6323 115.232C45.1494 112.704 42.6047 110.891 42.8193 108.313C42.9393 107.524 43.177 106.757 43.5244 106.038C44.0798 104.647 44.4832 103.201 44.7278 101.724C44.9786 100.587 44.9536 99.407 44.655 98.2818C44.3292 97.2912 43.6662 96.5034 43.0991 95.6658C42.3309 94.5271 41.7247 93.2876 41.2978 91.9828C41.1431 91.5971 41.084 91.1799 41.1254 90.7666C41.249 90.279 41.5159 89.8394 41.8919 89.5045C43.2868 88.0473 44.7815 86.529 46.6363 86.1083C47.5226 85.961 48.424 85.9263 49.319 86.005C50.8816 86.0547 52.4457 85.9882 53.9984 85.8062C55.2784 85.657 57.4475 85.6761 58.5282 84.8424C59.5362 84.0775 60.1072 83.1022 61.3527 82.6127C62.6239 82.1483 63.9899 82.0025 65.3307 82.1882V82.1882Z" fill="black"/>
<path opacity="0.1" d="M70.2783 173.885C70.2783 173.885 75.429 184.009 73.8692 187.126Z" fill="black"/>
<path opacity="0.1" d="M79.6178 200.962L72.0756 191.401V191.569C72.0756 191.569 71.6387 188.479 73.0759 189.52C76.2223 191.791 81.258 195.516 81.3654 196.159C81.4727 196.801 80.3459 199.379 79.6178 200.962Z" fill="black"/>
<g opacity="0.1">
<path opacity="0.1" d="M68.9448 110.872C68.9448 110.872 69.5809 113.504 67.5229 114.819C70.6923 114.276 70.8303 111.817 70.7345 110.746C70.1429 110.842 69.5439 110.884 68.9448 110.872V110.872Z" fill="black"/>
<path opacity="0.1" d="M9.63847 147.951C9.63847 147.951 38.3584 132.064 42.574 123.964C45.5978 118.15 52.8831 114.666 56.7538 113.159C53.9294 114.104 44.425 117.726 40.8533 124.587C36.6376 132.687 7.91772 148.574 7.91772 148.574L9.63847 147.951Z" fill="black"/>
<path opacity="0.1" d="M74.5322 109.637C79.4185 108.107 84.0902 104.332 84.0902 104.332L69.1056 93.7383L69.4467 92.285L68.0134 91.7113L67.3887 94.3579L82.3733 104.952C79.9687 106.838 77.334 108.412 74.5322 109.637V109.637Z" fill="black"/>
<path opacity="0.1" d="M74.6279 145.534C76.5426 144.881 78.5075 144.386 80.503 144.054L80.5298 143.751C78.5193 144.192 76.546 144.788 74.6279 145.534V145.534Z" fill="black"/>
<path opacity="0.1" d="M56.4663 161.853H56.3284C56.2761 161.882 56.2159 161.894 56.1566 161.886C56.0973 161.879 56.042 161.852 55.9988 161.811C56.106 161.841 56.217 161.855 56.3284 161.853C56.8419 161.555 57.6122 159.229 55.9988 145.767C54.2742 131.394 47.5062 132.523 43.8003 134.175C47.5867 133.135 52.7987 134.033 54.2819 146.39C55.8953 159.853 55.125 162.182 54.6115 162.476C55.2771 162.452 55.9213 162.235 56.4663 161.853Z" fill="black"/>
<path opacity="0.1" d="M54.6107 162.48C54.4997 162.482 54.3889 162.468 54.282 162.438C54.3251 162.479 54.3803 162.506 54.4394 162.513C54.4986 162.521 54.5586 162.509 54.6107 162.48V162.48Z" fill="black"/>
</g>
<path d="M65.3307 81.8861C67.7988 82.1653 70.148 83.2247 72.5778 83.7984C73.1849 83.9884 73.8318 84.0134 74.4518 83.871C75.3946 83.5804 76.1611 82.5936 77.1345 82.6242C77.7362 82.6242 78.2842 83.0526 78.7671 83.4465C79.567 84.0522 80.3191 84.7183 81.0167 85.4391C82.6914 87.2557 83.7338 89.7034 85.263 91.6769C86.7921 93.6503 89.2027 95.1878 91.3756 94.2814C89.9002 100.018 85.056 104.405 79.821 104.761C77.7323 104.902 75.6054 104.47 73.5704 105.082C73.0661 105.287 72.5339 105.416 71.9914 105.464C70.8417 105.464 69.8913 104.397 69.1631 103.361C67.4615 100.921 66.0972 98.1518 64.181 95.9297C63.5487 95.1954 62.8014 94.4955 61.9084 94.3617C61.0155 94.2278 60.1915 94.6524 59.3944 95.0654C58.0798 95.7462 56.7347 96.4499 55.7153 97.6125C54.6959 98.7752 54.052 100.515 54.4736 102.091C54.6997 102.94 55.2209 103.705 55.2401 104.596C55.2401 106.011 54.006 107.048 53.7569 108.421C53.702 109 53.6816 109.583 53.6956 110.165C53.5845 112.054 52.3504 113.607 51.0551 114.788C50.553 115.251 49.9935 115.745 49.8479 116.46C49.7482 116.946 49.8479 117.462 49.7827 117.955C49.5949 119.183 48.3686 119.802 47.284 119.963C46.0173 120.148 44.7241 119.995 43.5359 119.519C45.0689 118.804 45.9848 116.766 45.6323 114.93C45.1494 112.402 42.6047 110.589 42.8193 108.011C42.9393 107.222 43.177 106.455 43.5244 105.736C44.0798 104.345 44.4832 102.899 44.7278 101.422C44.9786 100.285 44.9536 99.1049 44.655 97.9797C44.3292 96.9891 43.6662 96.2013 43.0991 95.3637C42.3309 94.225 41.7247 92.9856 41.2978 91.6807C41.1431 91.2951 41.084 90.8778 41.1254 90.4645C41.249 89.9769 41.5159 89.5374 41.8919 89.2024C43.2868 87.7453 44.7815 86.2269 46.6363 85.8062C47.5226 85.6589 48.424 85.6242 49.319 85.703C50.8816 85.7526 52.4457 85.6861 53.9984 85.5041C55.2784 85.3549 57.4475 85.3741 58.5282 84.5403C59.5362 83.7754 60.1072 82.8002 61.3527 82.3106C62.6239 81.8462 63.9899 81.7004 65.3307 81.8861V81.8861Z" fill="#A66477"/>
<path d="M319.429 61.953C319.429 61.9033 319.429 61.8574 319.429 61.8115C319.429 61.7656 319.429 61.712 319.406 61.6662H319.345C319.345 61.5629 319.345 61.4596 319.345 61.3487C319.192 57.8034 314.279 50.2576 312.309 52.4605C310.584 54.3957 313.186 59.2911 314.512 61.494L314.631 61.6929L314.566 61.6509C314.566 61.6509 309.082 77.9739 308.434 78.6088C307.787 79.2437 303.272 92.0788 297.32 93.5245C296.144 93.8036 295.167 94.0561 294.346 94.2894L294.412 94.0714C294.795 92.8207 295.266 91.639 295.458 90.2468C295.649 88.8547 295.458 87.1681 294.753 86.4911C294.408 86.1546 293.986 86.1087 293.703 85.5733C293.518 85.1037 293.42 84.605 293.411 84.1008L292.905 77.9127L293.258 77.8057C295.389 77.1249 297.454 75.5109 297.696 73.3386C297.622 73.3667 297.546 73.391 297.47 73.4113C297.498 73.285 297.52 73.1573 297.535 73.0288C295.745 73.7325 294.086 71.8815 292.361 71.0515C289.521 69.6632 286.275 70.9712 283.344 71.2887C280.021 71.652 276.867 70.2752 273.471 70.5238C271.624 70.6653 269.57 71.9159 269.67 73.7325C269.727 74.7307 270.436 75.5759 270.727 76.5321C271.463 78.8459 269.827 81.1674 268.393 83.1409C267.451 84.4374 266.546 86.0169 266.385 87.5391C263.086 84.097 259.518 80.1195 259.104 78.6241L249.557 62.301C249.557 62.301 249.331 62.542 248.967 62.8976C248.91 62.7217 248.841 62.5152 248.764 62.3087C247.545 58.901 244.096 50.6439 239.723 52.1584C235.351 53.6729 241.536 62.1366 244.226 65.5098L244.61 65.9764C244.384 66.0317 244.147 66.0211 243.928 65.9458L254.574 84.1697C254.574 84.1697 256.509 87.6576 258.284 88.6061C258.284 88.6061 271.509 105.247 271.67 108.574C271.831 111.901 277.618 120.778 277.618 120.778C277.618 120.778 279.553 135.2 276.166 137.736H276.208H276.235H276.277H276.315H276.392H276.441H276.491H276.556H276.61H276.687H276.725C276.564 137.893 276.399 138.065 276.231 138.252C273.721 141.029 270.513 146.98 274.897 157.1C281.347 172.015 282.317 177.859 282.317 177.859C282.317 177.859 270.053 178.494 267.639 178.968C265.5 179.389 257.188 179.683 255.287 179.733C254.608 178.945 252.604 177.201 249.898 179.733C246.511 182.904 244.092 193.501 244.092 193.501C244.092 193.501 242.801 202.061 247.158 199.839C247.158 199.839 252.32 192.706 253.769 192.388C254.49 192.232 255.252 191.172 255.835 190.151L255.865 190.17C255.9 190.17 256.042 190.094 256.272 190.002C257.345 189.577 260.299 188.556 262.63 189.065C263.906 189.344 269.378 189.409 275.115 189.394C273.82 192.492 271.498 200.485 271.498 200.485C271.498 200.485 270.528 207.939 273.747 207.633C276.047 207.407 279.573 201.544 281.412 198.198C282.746 197.223 286.567 193.727 289.391 193.991L308.423 186.701C308.423 186.701 312.937 184.166 310.519 175.767C308.603 169.089 303.149 155.421 300.996 150.093L300.93 149.955C300.409 148.666 300.095 147.902 300.095 147.902C299.21 145.469 298.63 142.938 298.367 140.363C298.347 140.161 298.332 139.954 298.317 139.751C298.583 139.64 298.834 139.495 299.064 139.319C299.064 139.319 297.29 121.413 299.064 119.508L299.095 119.474V119.451L299.125 119.413L299.194 119.325L299.279 119.218C299.374 119.091 299.489 118.935 299.62 118.743C300.635 117.259 302.529 113.871 301.984 109.87C301.961 109.697 301.933 109.522 301.9 109.347C301.692 108.262 301.319 107.215 300.796 106.241C300.72 105.836 300.672 105.425 300.654 105.013C300.654 104.78 300.654 104.524 300.654 104.248V104.203C300.654 104.129 300.654 104.055 300.654 103.981V103.927C300.654 103.747 300.685 103.545 300.712 103.376V103.308C300.712 103.239 300.723 103.169 300.746 103.097V103.009C300.746 102.94 300.777 102.872 300.792 102.803V102.73C300.815 102.638 300.838 102.547 300.869 102.455V102.409C300.892 102.332 300.918 102.257 300.946 102.183L300.98 102.095L301.057 101.912L301.095 101.82C301.126 101.751 301.16 101.682 301.195 101.613L301.222 101.556C301.268 101.472 301.316 101.389 301.367 101.307L301.409 101.242L301.536 101.063L301.597 100.982L301.731 100.822L301.793 100.753C301.862 100.68 301.931 100.607 302.007 100.539C304.104 98.6264 313.458 84.533 313.458 84.533C313.458 84.533 315.716 81.3625 315.716 79.3049C315.842 79.259 319.832 65.9879 319.429 61.953ZM294.316 180.418C294.086 178.245 293.856 175.553 293.645 172.769L297.294 178.444C297.294 178.444 296.949 180.173 294.316 180.418Z" fill="url(#paint3_linear)"/>
<path d="M256.276 179.216C256.276 179.216 254.091 175.774 250.811 178.907C247.53 182.039 245.192 192.457 245.192 192.457C245.192 192.457 243.943 200.871 248.159 198.687C248.159 198.687 253.141 191.677 254.559 191.367C255.977 191.057 257.525 187.16 257.525 187.16L256.276 179.216Z" fill="#493545"/>
<path d="M279.687 187.627C279.687 187.627 276.721 186.223 275.786 187.317C274.851 188.411 271.728 199.311 271.728 199.311C271.728 199.311 270.792 206.478 273.912 206.164C277.032 205.85 282.497 194.629 282.497 194.629L279.687 187.627Z" fill="#493545"/>
<path opacity="0.05" d="M279.687 187.627C279.687 187.627 276.721 186.223 275.786 187.317C274.851 188.411 271.728 199.311 271.728 199.311C271.728 199.311 270.792 206.478 273.912 206.164C277.032 205.85 282.497 194.629 282.497 194.629L279.687 187.627Z" fill="black"/>
<path d="M289.989 166.442L296.699 176.88C296.699 176.88 296.232 179.216 292.173 178.75L278.281 187.474C278.281 187.474 277.074 198.094 280.933 197.13C281.558 196.974 285.915 192.457 289.05 192.771L307.472 185.603C307.472 185.603 311.841 183.11 309.5 174.856C307.158 166.603 299.416 147.465 299.416 147.465L287.18 154.296L289.989 166.442Z" fill="#3E3D77"/>
<path opacity="0.05" d="M289.989 166.442L296.699 176.88C296.699 176.88 296.232 179.216 292.173 178.75L278.281 187.474C278.281 187.474 277.074 198.094 280.933 197.13C281.558 196.974 285.915 192.457 289.05 192.771L307.472 185.603C307.472 185.603 311.841 183.11 309.5 174.856C307.158 166.603 299.416 147.465 299.416 147.465L287.18 154.296L289.989 166.442Z" fill="black"/>
<path d="M294.205 181.863C295.14 187.784 289.836 188.25 289.836 188.25C289.836 188.25 265.952 188.717 263.143 188.093C260.334 187.47 256.586 189.183 256.586 189.183C251.746 186.223 255.651 178.903 255.651 178.903C255.651 178.903 265.642 178.593 267.984 178.138C270.325 177.683 282.186 177.037 282.186 177.037C282.186 177.037 281.251 171.273 275.004 156.633C270.762 146.689 273.855 140.838 276.296 138.111C276.919 137.387 277.64 136.754 278.438 136.229L297.639 137.162C297.618 138.129 297.654 139.095 297.746 140.057C298.074 143.361 298.935 146.589 300.294 149.619C299.202 149.619 292.177 156.163 292.177 156.163C292.177 156.163 293.266 175.947 294.205 181.863Z" fill="#3E3D77"/>
<path opacity="0.1" d="M257.054 179.526C257.054 179.526 267.045 179.217 269.386 178.761C271.728 178.306 283.589 177.671 283.589 177.671C283.589 177.671 282.654 171.908 276.407 157.268C272.165 147.324 275.257 141.472 277.699 138.745C278.322 138.022 279.043 137.388 279.841 136.864L297.631 137.728C297.631 137.544 297.631 137.346 297.631 137.173L278.431 136.24C277.632 136.765 276.911 137.398 276.288 138.122C273.859 140.853 270.754 146.7 274.997 156.644C281.259 171.273 282.186 177.037 282.186 177.037C282.186 177.037 270.306 177.66 267.984 178.126C265.661 178.593 255.651 178.891 255.651 178.891C255.651 178.891 251.75 186.215 256.586 189.187C256.586 189.187 256.732 189.118 256.969 189.019C253.754 185.718 257.054 179.526 257.054 179.526Z" fill="black"/>
<path d="M285.616 79.056H275.939V103.51H285.616V79.056Z" fill="#493545"/>
<path opacity="0.1" d="M285.616 79.056H275.939V103.51H285.616V79.056Z" fill="black"/>
<path d="M291.15 75.4685C291.484 75.5603 291.859 75.5718 292.085 76.0307C292.226 76.3975 292.302 76.7856 292.312 77.1781L292.921 84.7354C292.93 85.2302 293.026 85.7195 293.204 86.181C293.461 86.6935 293.887 86.7547 294.22 87.0836C294.891 87.7491 295.086 89.4166 294.902 90.7743C294.718 92.132 294.255 93.2947 293.891 94.5223C293.369 96.2816 293.024 98.2589 292.292 99.7428C291.56 101.227 290.231 102.038 289.372 100.791C288.514 99.5439 288.629 97.0274 288.468 94.966C288.199 91.5239 286.854 88.5561 286.762 85.0911C286.686 82.2877 287.441 79.6717 287.912 77.0137C288.249 75.1894 288.268 72.975 288.759 71.3342C289.169 73.2847 289.951 75.1396 291.15 75.4685Z" fill="#493545"/>
<path opacity="0.1" d="M291.15 75.4685C291.484 75.5603 291.859 75.5718 292.085 76.0307C292.226 76.3975 292.302 76.7856 292.312 77.1781L292.921 84.7354C292.93 85.2302 293.026 85.7195 293.204 86.181C293.461 86.6935 293.887 86.7547 294.22 87.0836C294.891 87.7491 295.086 89.4166 294.902 90.7743C294.718 92.132 294.255 93.2947 293.891 94.5223C293.369 96.2816 293.024 98.2589 292.292 99.7428C291.56 101.227 290.231 102.038 289.372 100.791C288.514 99.5439 288.629 97.0274 288.468 94.966C288.199 91.5239 286.854 88.5561 286.762 85.0911C286.686 82.2877 287.441 79.6717 287.912 77.0137C288.249 75.1894 288.268 72.975 288.759 71.3342C289.169 73.2847 289.951 75.1396 291.15 75.4685Z" fill="black"/>
<path d="M250.186 64.7257L246.442 67.8427C246.442 67.8427 245.997 67.3226 245.334 66.4812C242.732 63.1653 236.749 54.847 240.977 53.3592C245.204 51.8715 248.545 59.9833 249.726 63.3336C250.025 64.1826 250.186 64.7257 250.186 64.7257Z" fill="#C77485"/>
<path d="M317.774 63.6354C316.214 65.9722 314.029 63.6354 314.029 63.6354C314.029 63.6354 313.75 63.2185 313.355 62.5454C312.071 60.3769 309.553 55.5694 311.22 53.6648C313.136 51.4887 317.885 58.9159 318.03 62.4001C318.076 62.8284 317.986 63.2602 317.774 63.6354V63.6354Z" fill="#C77485"/>
<path d="M279.373 88.8698C279.373 88.8698 282.497 98.8403 281.558 101.797C280.619 104.753 288.272 108.195 288.272 108.195H297.014C297.014 108.195 300.137 101.808 299.355 99.9379C298.574 98.0677 291.863 96.668 291.863 96.668C291.863 96.668 287.962 96.668 288.119 86.2308L279.373 88.8698Z" fill="#C77485"/>
<path opacity="0.1" d="M250.186 64.7256L246.442 67.8426C246.442 67.8426 245.997 67.3225 245.334 66.4811C246.694 66.2401 248.806 64.259 249.73 63.3335C250.025 64.1825 250.186 64.7256 250.186 64.7256Z" fill="black"/>
<path opacity="0.1" d="M317.774 63.6355C316.214 65.9723 314.029 63.6355 314.029 63.6355C314.029 63.6355 313.75 63.2187 313.355 62.5455L313.405 62.3887C314.417 63.1116 317.563 62.4958 318.03 62.3887C318.078 62.8209 317.988 63.2571 317.774 63.6355V63.6355Z" fill="black"/>
<path opacity="0.1" d="M297.738 140.053C292.909 142.252 277.22 138.336 276.277 138.103C276.9 137.379 277.621 136.746 278.419 136.221L297.619 137.154C297.602 138.122 297.642 139.09 297.738 140.053V140.053Z" fill="black"/>
<path d="M281.405 97.4367C281.405 97.4367 277.66 98.6835 272.353 93.8532C272.353 93.8532 260.472 82.1692 259.706 79.3659L250.508 63.3028C250.508 63.3028 246.607 67.5098 245.043 66.8864L255.344 84.8005C255.344 84.8005 257.218 88.2426 258.935 89.1605C258.935 89.1605 271.736 105.518 271.889 108.788C272.042 112.058 277.657 120.816 277.657 120.816C277.657 120.816 279.531 134.99 276.25 137.483C276.25 137.483 294.511 142.157 298.413 139.04C298.413 139.04 296.696 121.447 298.413 119.569C298.413 119.569 303.721 113.339 300.13 106.486C300.13 106.486 299.363 102.749 301.379 100.879C303.395 99.0086 312.462 85.1447 312.462 85.1447C312.462 85.1447 314.647 82.0277 314.647 80.0046C314.647 80.0046 318.705 66.2974 318.096 62.7139C318.096 62.7139 314.505 63.4788 313.413 62.7139C313.413 62.7139 308.105 78.7769 307.48 79.3812C306.855 79.9854 302.498 92.6217 296.711 94.0253C290.924 95.4289 290.001 96.0484 290.001 96.0484C290.001 96.0484 301.237 103.059 295.776 106.172C290.315 109.285 281.405 97.4367 281.405 97.4367Z" fill="#E62B1E"/>
<path opacity="0.1" d="M288.498 91.268C288.313 89.8007 288.237 88.3216 288.272 86.8431L279.53 89.4896C279.76 90.0708 279.944 90.6693 280.078 91.2795C281.079 91.7193 282.428 92.7596 283.589 92.7596C285.345 92.8169 287.071 92.2925 288.498 91.268V91.268Z" fill="black"/>
<path d="M283.432 92.2964C287.915 92.2964 291.549 88.6698 291.549 84.1961C291.549 79.7224 287.915 76.0958 283.432 76.0958C278.949 76.0958 275.315 79.7224 275.315 84.1961C275.315 88.6698 278.949 92.2964 283.432 92.2964Z" fill="#C77485"/>
<path opacity="0.1" d="M273.774 71.7169C271.988 71.8545 269.995 73.086 270.095 74.8721C270.149 75.855 270.823 76.6849 271.118 77.6257C271.827 79.9013 270.248 82.1846 268.861 84.1274C267.474 86.0703 266.178 88.6442 267.366 90.7018C267.705 91.1972 268.071 91.6734 268.462 92.1283C269.93 94.1056 269.911 96.7751 270.563 99.1502C271.395 102.189 273.361 104.794 276.059 106.43C278.756 108.066 281.978 108.609 285.064 107.947C283.903 106.467 283.323 104.614 283.436 102.738C283.524 101.376 283.964 99.9533 283.436 98.6951C282.753 97.0773 280.753 96.4386 279.722 95.0235C278.691 93.6084 278.76 91.6465 279.258 89.9598C279.756 88.2732 280.619 86.709 281.033 84.988C281.135 84.4858 281.263 83.9893 281.416 83.5002C282.136 81.4579 284.29 80.2723 286.398 79.7637C288.506 79.255 290.721 79.2244 292.779 78.5551C294.837 77.8858 296.837 76.3178 297.075 74.1646C295.343 74.8568 293.737 73.0516 292.066 72.2217C289.314 70.8602 286.176 72.1414 283.34 72.455C280.109 72.8145 277.043 71.4797 273.774 71.7169Z" fill="black"/>
<path d="M273.617 71.4069C271.831 71.5445 269.838 72.776 269.938 74.5621C269.991 75.545 270.666 76.3749 270.961 77.3158C271.67 79.5913 270.091 81.8746 268.704 83.8174C267.316 85.7603 266.021 88.3342 267.209 90.3918C267.548 90.8872 267.914 91.3634 268.305 91.8183C269.773 93.7956 269.754 96.4651 270.405 98.8402C271.237 101.879 273.204 104.484 275.901 106.12C278.598 107.756 281.821 108.299 284.907 107.637C283.745 106.157 283.166 104.304 283.278 102.428C283.366 101.066 283.807 99.6433 283.278 98.3851C282.596 96.7673 280.596 96.1286 279.565 94.7135C278.534 93.2984 278.603 91.3365 279.101 89.6498C279.599 87.9632 280.462 86.399 280.875 84.678C280.978 84.1758 281.105 83.6793 281.259 83.1902C281.979 81.1479 284.133 79.9623 286.241 79.4537C288.349 78.945 290.564 78.9144 292.622 78.2451C294.68 77.5758 296.68 76.0078 296.918 73.8546C295.186 74.5468 293.58 72.7416 291.909 71.9117C289.157 70.5502 286.018 71.8314 283.183 72.145C279.959 72.5007 276.905 71.1506 273.617 71.4069Z" fill="#493545"/>
<path opacity="0.1" d="M291.472 102.191C291.472 102.191 294.722 105.086 295.362 106.363Z" fill="black"/>
<path opacity="0.1" d="M298.504 119.481C298.504 119.481 294.446 119.481 292.572 119.948C290.698 120.415 286.172 119.948 286.172 119.948" fill="black"/>
<g opacity="0.1">
<path opacity="0.1" d="M295.764 106.161C295.414 106.36 295.035 106.505 294.641 106.589C295.659 106.814 296.725 106.662 297.638 106.161C303.103 103.044 291.863 96.0371 291.863 96.0371H289.989C289.989 96.0371 301.229 103.047 295.764 106.161Z" fill="black"/>
<path opacity="0.1" d="M318.122 62.9857C318.122 62.8863 318.099 62.7907 318.084 62.7027C317.442 62.8355 316.794 62.9338 316.141 62.9972C316.8 63.0695 317.465 63.0656 318.122 62.9857V62.9857Z" fill="black"/>
<path opacity="0.1" d="M278.128 137.472C281.404 134.979 279.534 120.805 279.534 120.805C279.534 120.805 273.916 112.081 273.759 108.811C273.602 105.541 260.805 89.1837 260.805 89.1837C259.088 88.2505 257.214 84.8237 257.214 84.8237C257.214 84.8237 246.599 67.5331 245.039 66.9097L255.34 84.8237C255.34 84.8237 257.214 88.2658 258.931 89.1837C258.931 89.1837 271.731 105.541 271.885 108.811C272.038 112.081 277.656 120.816 277.656 120.816C277.656 120.816 279.53 134.99 276.25 137.484C276.25 137.484 287.475 140.356 294.204 140.096C287.46 139.859 278.128 137.472 278.128 137.472Z" fill="black"/>
<path opacity="0.1" d="M281.496 97.5592L281.404 97.4407C281.298 97.4722 281.189 97.4965 281.079 97.5133C281.224 97.5325 281.362 97.5477 281.496 97.5592Z" fill="black"/>
</g>
<g opacity="0.1">
<path opacity="0.1" d="M318.084 62.6835L317.989 62.7026C317.824 67.4871 314.497 78.7274 314.497 78.7274C314.497 80.7505 312.313 83.8675 312.313 83.8675C312.313 83.8675 303.261 97.7314 301.23 99.6016C299.198 101.472 299.98 105.208 299.98 105.208L299.999 105.247C299.938 103.988 300.091 102.038 301.383 100.845C303.41 98.9744 312.466 85.1105 312.466 85.1105C312.466 85.1105 314.651 81.9935 314.651 79.9703C314.651 79.9933 318.709 66.2862 318.084 62.6835Z" fill="black"/>
<path opacity="0.1" d="M298.263 118.311C298.497 119.634 298.34 118.235 298.42 119.558C298.42 119.558 302.253 115.072 301.206 109.526C301.521 114.483 298.263 118.311 298.263 118.311Z" fill="black"/>
</g>
<path opacity="0.1" d="M180.042 276C270.561 276 343.941 268.966 343.941 260.289C343.941 251.612 270.561 244.577 180.042 244.577C89.5222 244.577 16.1418 251.612 16.1418 260.289C16.1418 268.966 89.5222 276 180.042 276Z" fill="#5762D5"/>
<path d="M116.508 244.348C116.508 244.348 110.928 225.436 117.555 211.519C120.373 205.698 121.223 199.122 119.977 192.778C119.361 189.771 118.471 186.827 117.317 183.982" stroke="#535461" stroke-width="2" stroke-miterlimit="10"/>
<path d="M121.448 175.193C121.448 177.511 117.232 184.231 117.232 184.231C117.232 184.231 113.017 177.511 113.017 175.193C112.974 174.616 113.051 174.037 113.243 173.491C113.435 172.945 113.737 172.444 114.132 172.02C114.527 171.596 115.005 171.258 115.536 171.027C116.068 170.795 116.641 170.676 117.221 170.676C117.801 170.676 118.374 170.795 118.906 171.027C119.437 171.258 119.915 171.596 120.31 172.02C120.704 172.444 121.007 172.945 121.199 173.491C121.391 174.037 121.468 174.616 121.425 175.193H121.448Z" fill="#E62B1E"/>
<path d="M128.389 188.028C127.128 189.975 119.938 193.333 119.938 193.333C119.938 193.333 120.069 185.412 121.33 183.466C121.609 182.96 121.99 182.518 122.449 182.166C122.907 181.813 123.433 181.559 123.994 181.419C124.555 181.278 125.14 181.255 125.71 181.349C126.281 181.444 126.826 181.654 127.312 181.968C127.797 182.282 128.213 182.692 128.533 183.173C128.852 183.654 129.07 184.196 129.171 184.764C129.272 185.333 129.255 185.916 129.12 186.477C128.986 187.039 128.737 187.567 128.389 188.028V188.028Z" fill="#E62B1E"/>
<path d="M128.086 209.969C126.013 211.014 118.122 210.291 118.122 210.291C118.122 210.291 122.242 203.517 124.315 202.473C124.812 202.176 125.365 201.983 125.94 201.908C126.515 201.834 127.099 201.878 127.656 202.039C128.213 202.199 128.731 202.473 129.177 202.842C129.623 203.212 129.988 203.669 130.249 204.186C130.51 204.702 130.662 205.267 130.694 205.845C130.726 206.422 130.639 207 130.438 207.543C130.236 208.085 129.925 208.58 129.523 208.997C129.121 209.414 128.637 209.744 128.101 209.966L128.086 209.969Z" fill="#E62B1E"/>
<path d="M124.112 226.514C122.245 227.891 114.328 228.515 114.328 228.515C114.328 228.515 117.24 221.145 119.11 219.764C120.01 219.218 121.083 219.028 122.116 219.232C123.149 219.435 124.068 220.017 124.693 220.863C125.318 221.71 125.603 222.758 125.492 223.803C125.38 224.849 124.881 225.814 124.093 226.511L124.112 226.514Z" fill="#E62B1E"/>
<path d="M111.101 193.784C112.768 195.398 120.529 197.073 120.529 197.073C120.529 197.073 118.612 189.382 116.961 187.764C116.575 187.333 116.105 186.986 115.579 186.744C115.053 186.502 114.483 186.371 113.904 186.359C113.325 186.347 112.75 186.453 112.215 186.673C111.679 186.892 111.194 187.219 110.791 187.634C110.388 188.048 110.074 188.541 109.87 189.082C109.666 189.622 109.575 190.199 109.604 190.776C109.634 191.353 109.781 191.918 110.039 192.436C110.296 192.953 110.658 193.412 111.101 193.784Z" fill="#E62B1E"/>
<path d="M106.705 213.198C108.778 214.242 116.669 213.519 116.669 213.519C116.669 213.519 112.565 206.746 110.491 205.721C109.508 205.314 108.407 205.292 107.409 205.662C106.411 206.031 105.59 206.763 105.111 207.712C104.632 208.66 104.53 209.754 104.825 210.775C105.121 211.795 105.793 212.666 106.705 213.213V213.198Z" fill="#E62B1E"/>
<path d="M105.019 232.649C106.885 234.026 114.803 234.649 114.803 234.649C114.803 234.649 111.89 227.279 110.02 225.898C109.582 225.512 109.067 225.22 108.51 225.042C107.952 224.864 107.364 224.805 106.782 224.866C106.2 224.928 105.637 225.11 105.13 225.4C104.622 225.691 104.181 226.084 103.833 226.554C103.486 227.024 103.241 227.561 103.113 228.131C102.985 228.701 102.978 229.291 103.091 229.864C103.205 230.437 103.436 230.98 103.771 231.459C104.106 231.938 104.538 232.342 105.038 232.645L105.019 232.649Z" fill="#E62B1E"/>
<path d="M229.426 244.62C229.426 244.62 223.846 225.708 230.472 211.79C233.29 205.97 234.14 199.394 232.894 193.05C232.279 190.043 231.388 187.098 230.234 184.254" stroke="#535461" stroke-width="2" stroke-miterlimit="10"/>
<path d="M234.358 175.461C234.358 177.778 230.142 184.498 230.142 184.498C230.142 184.498 225.927 177.778 225.927 175.461C226.005 174.402 226.482 173.411 227.262 172.689C228.042 171.966 229.067 171.564 230.131 171.564C231.195 171.564 232.22 171.966 233 172.689C233.779 173.411 234.256 174.402 234.335 175.461H234.358Z" fill="#5762D5"/>
<path d="M241.31 188.296C240.049 190.243 232.86 193.601 232.86 193.601C232.86 193.601 232.99 185.68 234.251 183.733C234.53 183.228 234.911 182.785 235.37 182.433C235.828 182.081 236.354 181.827 236.915 181.686C237.477 181.546 238.061 181.522 238.631 181.617C239.202 181.711 239.747 181.922 240.233 182.236C240.718 182.55 241.134 182.96 241.454 183.441C241.774 183.922 241.991 184.464 242.092 185.032C242.193 185.601 242.176 186.184 242.041 186.745C241.907 187.307 241.658 187.835 241.31 188.296V188.296Z" fill="#5762D5"/>
<path d="M241.019 210.237C238.946 211.281 231.055 210.558 231.055 210.558C231.055 210.558 235.174 203.785 237.248 202.741C237.745 202.44 238.3 202.246 238.877 202.17C239.453 202.093 240.039 202.137 240.598 202.298C241.157 202.458 241.677 202.733 242.124 203.104C242.571 203.475 242.937 203.934 243.198 204.452C243.459 204.971 243.61 205.538 243.64 206.118C243.671 206.698 243.581 207.277 243.377 207.821C243.172 208.364 242.857 208.859 242.451 209.275C242.045 209.691 241.558 210.018 241.019 210.237V210.237Z" fill="#5762D5"/>
<path d="M237.029 226.783C235.163 228.159 227.245 228.783 227.245 228.783C227.245 228.783 230.158 221.413 232.028 220.032C232.928 219.486 234 219.297 235.033 219.5C236.066 219.704 236.986 220.286 237.611 221.132C238.235 221.978 238.52 223.026 238.409 224.072C238.298 225.117 237.799 226.082 237.01 226.779L237.029 226.783Z" fill="#5762D5"/>
<path d="M224.026 194.052C225.693 195.666 233.454 197.341 233.454 197.341C233.454 197.341 231.537 189.65 229.886 188.032C229.5 187.601 229.03 187.253 228.504 187.012C227.978 186.77 227.408 186.639 226.829 186.626C226.25 186.614 225.675 186.721 225.14 186.94C224.604 187.16 224.119 187.487 223.716 187.901C223.313 188.316 222.999 188.808 222.795 189.349C222.591 189.89 222.5 190.467 222.529 191.044C222.559 191.621 222.706 192.186 222.964 192.703C223.221 193.221 223.583 193.68 224.026 194.052V194.052Z" fill="#5762D5"/>
<path d="M219.622 213.465C221.696 214.509 229.587 213.786 229.587 213.786C229.587 213.786 225.467 207.013 223.394 205.969C222.411 205.562 221.31 205.541 220.312 205.91C219.314 206.279 218.492 207.012 218.013 207.96C217.534 208.908 217.432 210.003 217.727 211.023C218.023 212.043 218.695 212.915 219.607 213.461L219.622 213.465Z" fill="#5762D5"/>
<path d="M217.94 232.917C219.807 234.294 227.724 234.917 227.724 234.917C227.724 234.917 224.812 227.547 222.941 226.167C222.041 225.621 220.969 225.431 219.936 225.634C218.903 225.838 217.983 226.42 217.359 227.266C216.734 228.112 216.449 229.161 216.56 230.206C216.671 231.251 217.17 232.217 217.959 232.913L217.94 232.917Z" fill="#5762D5"/>
<path opacity="0.1" d="M234.358 175.461C234.358 177.778 230.142 184.498 230.142 184.498C230.142 184.498 225.927 177.778 225.927 175.461C226.005 174.402 226.482 173.411 227.262 172.689C228.042 171.966 229.067 171.564 230.131 171.564C231.195 171.564 232.22 171.966 233 172.689C233.779 173.411 234.256 174.402 234.335 175.461H234.358Z" fill="#5762D5"/>
<path opacity="0.1" d="M241.31 188.296C240.049 190.243 232.86 193.601 232.86 193.601C232.86 193.601 232.99 185.68 234.251 183.733C234.53 183.228 234.911 182.785 235.37 182.433C235.828 182.081 236.354 181.827 236.915 181.686C237.477 181.546 238.061 181.522 238.631 181.617C239.202 181.711 239.747 181.922 240.233 182.236C240.718 182.55 241.134 182.96 241.454 183.441C241.774 183.922 241.991 184.464 242.092 185.032C242.193 185.601 242.176 186.184 242.041 186.745C241.907 187.307 241.658 187.835 241.31 188.296V188.296Z" fill="#5762D5"/>
<path opacity="0.1" d="M241.019 210.237C238.946 211.281 231.055 210.558 231.055 210.558C231.055 210.558 235.174 203.785 237.248 202.741C237.745 202.44 238.3 202.246 238.877 202.17C239.453 202.093 240.039 202.137 240.598 202.298C241.157 202.458 241.677 202.733 242.124 203.104C242.571 203.475 242.937 203.934 243.198 204.452C243.459 204.971 243.61 205.538 243.64 206.118C243.671 206.698 243.581 207.277 243.377 207.821C243.172 208.364 242.857 208.859 242.451 209.275C242.045 209.691 241.558 210.018 241.019 210.237V210.237Z" fill="#5762D5"/>
<path opacity="0.1" d="M237.029 226.783C235.163 228.159 227.245 228.783 227.245 228.783C227.245 228.783 230.158 221.413 232.028 220.032C232.928 219.486 234 219.297 235.033 219.5C236.066 219.704 236.986 220.286 237.611 221.132C238.235 221.978 238.52 223.026 238.409 224.072C238.298 225.117 237.799 226.082 237.01 226.779L237.029 226.783Z" fill="#5762D5"/>
<path opacity="0.1" d="M224.026 194.052C225.693 195.666 233.454 197.341 233.454 197.341C233.454 197.341 231.537 189.65 229.886 188.032C229.5 187.601 229.03 187.253 228.504 187.012C227.978 186.77 227.408 186.639 226.829 186.626C226.25 186.614 225.675 186.721 225.14 186.94C224.604 187.16 224.119 187.487 223.716 187.901C223.313 188.316 222.999 188.808 222.795 189.349C222.591 189.89 222.5 190.467 222.529 191.044C222.559 191.621 222.706 192.186 222.964 192.703C223.221 193.221 223.583 193.68 224.026 194.052V194.052Z" fill="#5762D5"/>
<path opacity="0.1" d="M219.622 213.465C221.696 214.509 229.587 213.786 229.587 213.786C229.587 213.786 225.467 207.013 223.394 205.969C222.411 205.562 221.31 205.541 220.312 205.91C219.314 206.279 218.492 207.012 218.013 207.96C217.534 208.908 217.432 210.003 217.727 211.023C218.023 212.043 218.695 212.915 219.607 213.461L219.622 213.465Z" fill="#5762D5"/>
<path opacity="0.1" d="M217.94 232.917C219.807 234.294 227.724 234.917 227.724 234.917C227.724 234.917 224.812 227.547 222.941 226.167C222.041 225.621 220.969 225.431 219.936 225.634C218.903 225.838 217.983 226.42 217.359 227.266C216.734 228.112 216.449 229.161 216.56 230.206C216.671 231.251 217.17 232.217 217.959 232.913L217.94 232.917Z" fill="#5762D5"/>
<path opacity="0.8" d="M256.732 28.8556H254.325C254.553 28.8665 254.781 28.831 254.994 28.7515C255.208 28.6719 255.404 28.5498 255.569 28.3927C255.734 28.2355 255.865 28.0465 255.955 27.8372C256.045 27.6278 256.091 27.4025 256.091 27.1747C256.091 26.947 256.045 26.7216 255.955 26.5123C255.865 26.3029 255.734 26.1139 255.569 25.9568C255.404 25.7996 255.208 25.6776 254.994 25.598C254.781 25.5184 254.553 25.483 254.325 25.4939H234.81C234.378 25.5145 233.969 25.7006 233.67 26.0135C233.371 26.3265 233.204 26.7423 233.204 27.1747C233.204 27.6072 233.371 28.023 233.67 28.3359C233.969 28.6489 234.378 28.835 234.81 28.8556H237.217C236.784 28.8762 236.376 29.0623 236.077 29.3753C235.778 29.6883 235.611 30.1041 235.611 30.5365C235.611 30.9689 235.778 31.3847 236.077 31.6977C236.376 32.0107 236.784 32.1968 237.217 32.2174H233.848C233.62 32.2065 233.393 32.242 233.179 32.3215C232.965 32.4011 232.77 32.5232 232.604 32.6803C232.439 32.8375 232.308 33.0264 232.218 33.2358C232.128 33.4451 232.082 33.6705 232.082 33.8982C232.082 34.126 232.128 34.3514 232.218 34.5607C232.308 34.7701 232.439 34.959 232.604 35.1162C232.77 35.2733 232.965 35.3954 233.179 35.475C233.393 35.5545 233.62 35.59 233.848 35.5791H253.348C253.576 35.59 253.803 35.5545 254.017 35.475C254.231 35.3954 254.426 35.2733 254.592 35.1162C254.757 34.959 254.888 34.7701 254.978 34.5607C255.068 34.3514 255.114 34.126 255.114 33.8982C255.114 33.6705 255.068 33.4451 254.978 33.2358C254.888 33.0264 254.757 32.8375 254.592 32.6803C254.426 32.5232 254.231 32.4011 254.017 32.3215C253.803 32.242 253.576 32.2065 253.348 32.2174H256.732C257.164 32.1968 257.573 32.0107 257.872 31.6977C258.171 31.3847 258.337 30.9689 258.337 30.5365C258.337 30.1041 258.171 29.6883 257.872 29.3753C257.573 29.0623 257.164 28.8762 256.732 28.8556Z" fill="white"/>
<path opacity="0.8" d="M163.975 18.6621H162.143C162.317 18.6716 162.492 18.6456 162.656 18.5856C162.819 18.5256 162.969 18.4329 163.096 18.3131C163.223 18.1934 163.324 18.0492 163.393 17.8892C163.462 17.7292 163.497 17.5569 163.497 17.3828C163.497 17.2086 163.462 17.0363 163.393 16.8764C163.324 16.7164 163.223 16.5721 163.096 16.4524C162.969 16.3327 162.819 16.24 162.656 16.18C162.492 16.12 162.317 16.094 162.143 16.1035H147.304C146.976 16.1214 146.668 16.264 146.442 16.5019C146.216 16.7399 146.09 17.0551 146.09 17.3828C146.09 17.7105 146.216 18.0257 146.442 18.2636C146.668 18.5016 146.976 18.6442 147.304 18.6621H149.136C148.962 18.6526 148.787 18.6786 148.624 18.7386C148.46 18.7986 148.31 18.8913 148.183 19.011C148.057 19.1308 147.956 19.275 147.887 19.435C147.818 19.5949 147.782 19.7672 147.782 19.9414C147.782 20.1155 147.818 20.2878 147.887 20.4478C147.956 20.6078 148.057 20.752 148.183 20.8718C148.31 20.9915 148.46 21.0842 148.624 21.1442C148.787 21.2042 148.962 21.2302 149.136 21.2207H146.572C146.398 21.2112 146.224 21.2372 146.06 21.2972C145.896 21.3572 145.746 21.4499 145.619 21.5696C145.493 21.6894 145.392 21.8336 145.323 21.9936C145.254 22.1535 145.218 22.3259 145.218 22.5C145.218 22.6741 145.254 22.8465 145.323 23.0064C145.392 23.1664 145.493 23.3106 145.619 23.4304C145.746 23.5501 145.896 23.6428 146.06 23.7028C146.224 23.7628 146.398 23.7888 146.572 23.7793H161.411C161.585 23.7888 161.76 23.7628 161.924 23.7028C162.087 23.6428 162.237 23.5501 162.364 23.4304C162.491 23.3106 162.592 23.1664 162.661 23.0064C162.73 22.8465 162.765 22.6741 162.765 22.5C162.765 22.3259 162.73 22.1535 162.661 21.9936C162.592 21.8336 162.491 21.6894 162.364 21.5696C162.237 21.4499 162.087 21.3572 161.924 21.2972C161.76 21.2372 161.585 21.2112 161.411 21.2207H163.975C164.303 21.2028 164.612 21.0602 164.837 20.8223C165.063 20.5843 165.189 20.2691 165.189 19.9414C165.189 19.6137 165.063 19.2985 164.837 19.0605C164.612 18.8226 164.303 18.68 163.975 18.6621V18.6621Z" fill="white"/>
<path d="M19.4226 219.871C19.4226 219.871 26.1293 233.008 20.6643 240.195C15.1993 247.381 21.1625 266.966 21.1625 266.966" stroke="#5762D5" stroke-miterlimit="10"/>
<path d="M21.4231 215.764C21.4231 218.296 19.5605 220.353 19.5605 220.353C19.5605 220.353 17.698 218.3 17.698 215.764C17.698 213.228 19.5605 211.174 19.5605 211.174C19.5605 211.174 21.4231 213.232 21.4231 215.764Z" fill="#5762D5"/>
<path d="M22.8984 219.871C22.8984 219.871 16.1918 233.008 21.6567 240.195C27.1217 247.381 21.1585 266.966 21.1585 266.966" stroke="#5762D5" stroke-miterlimit="10"/>
<path d="M20.9133 215.764C20.9133 218.296 22.7759 220.353 22.7759 220.353C22.7759 220.353 24.6384 218.3 24.6384 215.764C24.6384 213.228 22.7759 211.174 22.7759 211.174C22.7759 211.174 20.9133 213.232 20.9133 215.764Z" fill="#5762D5"/>
<path opacity="0.1" d="M20.9133 215.764C20.9133 218.296 22.7759 220.353 22.7759 220.353C22.7759 220.353 24.6384 218.3 24.6384 215.764C24.6384 213.228 22.7759 211.174 22.7759 211.174C22.7759 211.174 20.9133 213.232 20.9133 215.764Z" fill="black"/>
<path d="M25.6386 219.871C25.6386 219.871 32.3453 233.008 26.8803 240.195C21.4154 247.381 27.3785 266.966 27.3785 266.966" stroke="#5762D5" stroke-miterlimit="10"/>
<path d="M27.6201 215.764C27.6201 218.296 25.7576 220.353 25.7576 220.353C25.7576 220.353 23.895 218.3 23.895 215.764C23.895 213.228 25.7576 211.174 25.7576 211.174C25.7576 211.174 27.6201 213.232 27.6201 215.764Z" fill="#5762D5"/>
<path d="M26.5738 226.289C24.8148 228.113 22.0439 228.304 22.0439 228.304C22.0439 228.304 22.1283 225.535 23.8873 223.715C25.6464 221.894 28.4172 221.699 28.4172 221.699C28.4172 221.699 28.3214 224.461 26.5738 226.289Z" fill="#5762D5"/>
<path d="M26.7501 235.353C24.991 237.177 22.2202 237.368 22.2202 237.368C22.2202 237.368 22.3045 234.599 24.0636 232.779C25.8227 230.958 28.5935 230.763 28.5935 230.763C28.5935 230.763 28.5092 233.525 26.7501 235.353Z" fill="#5762D5"/>
<path d="M17.2073 240.336C18.8706 242.248 18.8131 245.017 18.8131 245.017C18.8131 245.017 16.0576 244.685 14.3943 242.772C12.7311 240.86 12.7886 238.091 12.7886 238.091C12.7886 238.091 15.5441 238.424 17.2073 240.336Z" fill="#5762D5"/>
<path d="M18.7403 221.019C20.8558 222.418 21.5418 225.103 21.5418 225.103C21.5418 225.103 18.7978 225.52 16.6823 224.12C14.5669 222.721 13.8809 220.036 13.8809 220.036C13.8809 220.036 16.6363 219.611 18.7403 221.019Z" fill="#5762D5"/>
<path opacity="0.1" d="M18.7403 221.019C20.8558 222.418 21.5418 225.103 21.5418 225.103C21.5418 225.103 18.7978 225.52 16.6823 224.12C14.5669 222.721 13.8809 220.036 13.8809 220.036C13.8809 220.036 16.6363 219.611 18.7403 221.019Z" fill="black"/>
<path d="M29.1069 219.871C29.1069 219.871 22.4003 233.008 27.8652 240.195C33.3302 247.381 27.367 266.966 27.367 266.966" stroke="#5762D5" stroke-miterlimit="10"/>
<path d="M27.1218 215.764C27.1218 218.296 28.9844 220.353 28.9844 220.353C28.9844 220.353 30.8469 218.3 30.8469 215.764C30.8469 213.228 28.9844 211.174 28.9844 211.174C28.9844 211.174 27.1218 213.232 27.1218 215.764Z" fill="#5762D5"/>
<path opacity="0.1" d="M27.1218 215.764C27.1218 218.296 28.9844 220.353 28.9844 220.353C28.9844 220.353 30.8469 218.3 30.8469 215.764C30.8469 213.228 28.9844 211.174 28.9844 211.174C28.9844 211.174 27.1218 213.232 27.1218 215.764Z" fill="black"/>
<path d="M27.6584 226.484C25.8763 228.289 25.7422 231.073 25.7422 231.073C25.7422 231.073 28.513 230.917 30.2951 229.111C32.0771 227.306 32.2113 224.522 32.2113 224.522C32.2113 224.522 29.4404 224.679 27.6584 226.484Z" fill="#5762D5"/>
<path opacity="0.1" d="M27.6584 226.484C25.8763 228.289 25.7422 231.073 25.7422 231.073C25.7422 231.073 28.513 230.917 30.2951 229.111C32.0771 227.306 32.2113 224.522 32.2113 224.522C32.2113 224.522 29.4404 224.679 27.6584 226.484Z" fill="black"/>
<path d="M31.1496 239.032C29.3675 240.837 29.2334 243.621 29.2334 243.621C29.2334 243.621 32.0042 243.465 33.7863 241.659C35.5683 239.854 35.7025 237.07 35.7025 237.07C35.7025 237.07 32.9202 237.227 31.1496 239.032Z" fill="#5762D5"/>
<path d="M26.022 236.275C26.022 236.275 30.0575 229.926 35.7256 229.773" stroke="#5762D5" stroke-miterlimit="10"/>
<path d="M22.8677 232.439C22.8677 232.439 18.8322 226.09 13.1641 225.937" stroke="#5762D5" stroke-miterlimit="10"/>
<path d="M22.3428 241.502C22.3428 241.502 26.3783 235.154 32.0464 235.001" stroke="#5762D5" stroke-miterlimit="10"/>
<path d="M35.5301 230.783C36.1079 230.783 36.5764 230.315 36.5764 229.738C36.5764 229.162 36.1079 228.694 35.5301 228.694C34.9523 228.694 34.4839 229.162 34.4839 229.738C34.4839 230.315 34.9523 230.783 35.5301 230.783Z" fill="#5762D5"/>
<path d="M13.264 227.034C13.8418 227.034 14.3103 226.567 14.3103 225.99C14.3103 225.414 13.8418 224.946 13.264 224.946C12.6862 224.946 12.2178 225.414 12.2178 225.99C12.2178 226.567 12.6862 227.034 13.264 227.034Z" fill="#5762D5"/>
<path d="M25.313 243.583C25.313 243.583 21.2775 237.235 15.6094 237.082" stroke="#5762D5" stroke-miterlimit="10"/>
<path d="M15.7088 238.187C16.2867 238.187 16.7551 237.719 16.7551 237.143C16.7551 236.566 16.2867 236.099 15.7088 236.099C15.131 236.099 14.6626 236.566 14.6626 237.143C14.6626 237.719 15.131 238.187 15.7088 238.187Z" fill="#5762D5"/>
<path d="M32.1229 236.098C32.7007 236.098 33.1691 235.631 33.1691 235.054C33.1691 234.478 32.7007 234.01 32.1229 234.01C31.5451 234.01 31.0767 234.478 31.0767 235.054C31.0767 235.631 31.5451 236.098 32.1229 236.098Z" fill="#5762D5"/>
<path d="M47.6288 259.321C47.6288 259.321 37.9022 257.378 35.3039 254.789C32.7055 252.2 21.0397 247.672 19.7405 250.907C18.4414 254.143 2.23037 265.146 13.2561 267.089C24.2819 269.031 39.1976 269.678 42.4398 268.381C45.682 267.085 47.6288 259.321 47.6288 259.321Z" fill="#A8A8A8"/>
<path opacity="0.2" d="M13.2563 265.884C24.2821 267.827 39.1978 268.473 42.44 267.177C44.908 266.19 46.6249 261.44 47.3033 259.252L47.629 259.321C47.629 259.321 45.6822 267.089 42.44 268.381C39.1978 269.674 24.2821 269.028 13.2563 267.089C10.0755 266.526 9.16335 265.211 9.50826 263.547C9.77653 264.618 10.8879 265.467 13.2563 265.884Z" fill="black"/>
<path d="M342.933 222.847C342.933 222.847 346.145 227.054 341.45 233.364C336.756 239.675 332.885 245.033 334.452 248.98C334.452 248.98 341.534 237.227 347.298 237.063C353.062 236.898 349.276 229.911 342.933 222.847Z" fill="#E62B1E"/>
<path opacity="0.1" d="M342.933 222.847C343.213 223.252 343.434 223.695 343.589 224.162C349.215 230.756 352.208 236.91 346.804 237.066C341.768 237.212 335.728 246.196 334.28 248.467C334.328 248.642 334.385 248.815 334.452 248.984C334.452 248.984 341.534 237.231 347.298 237.066C353.062 236.902 349.276 229.911 342.933 222.847Z" fill="black"/>
<path d="M348.904 228.186C348.904 229.662 348.739 230.863 348.521 230.863C348.302 230.863 348.138 229.666 348.138 228.186C348.138 226.705 348.345 227.421 348.548 227.421C348.751 227.421 348.904 226.713 348.904 228.186Z" fill="#FFD037"/>
<path d="M350.955 229.949C349.655 230.656 348.525 231.096 348.429 230.901C348.333 230.706 349.303 230.002 350.602 229.299C351.901 228.595 351.388 229.107 351.487 229.299C351.587 229.49 352.25 229.241 350.955 229.949Z" fill="#FFD037"/>
<path d="M325.971 222.847C325.971 222.847 322.76 227.054 327.455 233.364C332.149 239.675 336.02 245.033 334.453 248.98C334.453 248.98 327.37 237.227 321.606 237.063C315.842 236.898 319.629 229.911 325.971 222.847Z" fill="#E62B1E"/>
<path opacity="0.1" d="M325.971 222.847C325.692 223.252 325.471 223.695 325.316 224.162C319.69 230.756 316.697 236.91 322.101 237.066C327.136 237.212 333.176 246.196 334.625 248.467C334.577 248.642 334.52 248.815 334.452 248.984C334.452 248.984 327.37 237.231 321.606 237.066C315.842 236.902 319.629 229.911 325.971 222.847Z" fill="black"/>
<path d="M320 228.186C320 229.662 320.165 230.863 320.384 230.863C320.602 230.863 320.767 229.666 320.767 228.186C320.767 226.705 320.56 227.421 320.357 227.421C320.154 227.421 320 226.713 320 228.186Z" fill="#FFD037"/>
<path d="M317.95 229.949C319.249 230.656 320.38 231.096 320.476 230.901C320.571 230.706 319.602 230.002 318.303 229.299C317.003 228.595 317.517 229.107 317.417 229.299C317.318 229.49 316.651 229.241 317.95 229.949Z" fill="#FFD037"/>
<path d="M321.024 248.429C321.024 248.429 330.003 248.154 332.709 246.23C335.414 244.306 346.505 242.023 347.191 245.083C347.877 248.142 360.685 260.423 350.548 260.503C340.412 260.584 326.995 258.928 324.293 257.287C321.591 255.646 321.024 248.429 321.024 248.429Z" fill="#A8A8A8"/>
<path opacity="0.2" d="M350.729 259.443C340.592 259.524 327.175 257.868 324.473 256.227C322.415 254.976 321.595 250.49 321.323 248.421H321.024C321.024 248.421 321.591 255.65 324.293 257.29C326.995 258.931 340.412 260.591 350.548 260.507C353.476 260.484 354.484 259.443 354.431 257.906C354.024 258.843 352.924 259.424 350.729 259.443Z" fill="black"/>
<path opacity="0.8" d="M78.1551 41.5463H75.7484C75.9763 41.5571 76.2041 41.5217 76.418 41.4421C76.6318 41.3626 76.8272 41.2405 76.9924 41.0833C77.1575 40.9262 77.289 40.7372 77.3789 40.5279C77.4687 40.3185 77.515 40.0932 77.515 39.8654C77.515 39.6377 77.4687 39.4123 77.3789 39.2029C77.289 38.9936 77.1575 38.8046 76.9924 38.6475C76.8272 38.4903 76.6318 38.3683 76.418 38.2887C76.2041 38.2091 75.9763 38.1737 75.7484 38.1845H56.2492C55.8164 38.2051 55.4081 38.3912 55.1091 38.7042C54.8101 39.0172 54.6433 39.433 54.6433 39.8654C54.6433 40.2978 54.8101 40.7137 55.1091 41.0266C55.4081 41.3396 55.8164 41.5257 56.2492 41.5463H58.6559C58.2231 41.5669 57.8149 41.753 57.5159 42.066C57.2169 42.3789 57.0501 42.7947 57.0501 43.2272C57.0501 43.6596 57.2169 44.0754 57.5159 44.3884C57.8149 44.7013 58.2231 44.8874 58.6559 44.908H55.2873C54.8545 44.9287 54.4462 45.1147 54.1472 45.4277C53.8482 45.7407 53.6814 46.1565 53.6814 46.5889C53.6814 47.0213 53.8482 47.4372 54.1472 47.7501C54.4462 48.0631 54.8545 48.2492 55.2873 48.2698H74.7865C75.0144 48.2807 75.2422 48.2452 75.456 48.1656C75.6698 48.0861 75.8653 47.964 76.0304 47.8069C76.1956 47.6497 76.3271 47.4607 76.4169 47.2514C76.5068 47.042 76.5531 46.8167 76.5531 46.5889C76.5531 46.3612 76.5068 46.1358 76.4169 45.9265C76.3271 45.7171 76.1956 45.5281 76.0304 45.371C75.8653 45.2138 75.6698 45.0918 75.456 45.0122C75.2422 44.9326 75.0144 44.8972 74.7865 44.908H78.1551C78.5879 44.8874 78.9962 44.7013 79.2952 44.3884C79.5942 44.0754 79.761 43.6596 79.761 43.2272C79.761 42.7947 79.5942 42.3789 79.2952 42.066C78.9962 41.753 78.5879 41.5669 78.1551 41.5463V41.5463Z" fill="white"/>
</g>
<defs>
<linearGradient id="paint0_linear" x1="176.482" y1="230.963" x2="176.482" y2="72.6272" gradientUnits="userSpaceOnUse">
<stop stop-color="#808080" stop-opacity="0.25"/>
<stop offset="0.54" stop-color="#808080" stop-opacity="0.12"/>
<stop offset="1" stop-color="#808080" stop-opacity="0.1"/>
</linearGradient>
<linearGradient id="paint1_linear" x1="146.477" y1="203.857" x2="146.477" y2="203.838" gradientUnits="userSpaceOnUse">
<stop stop-color="#808080" stop-opacity="0.25"/>
<stop offset="0.54" stop-color="#808080" stop-opacity="0.12"/>
<stop offset="1" stop-color="#808080" stop-opacity="0.1"/>
</linearGradient>
<linearGradient id="paint2_linear" x1="24678.9" y1="77354.5" x2="24678.9" y2="34694.4" gradientUnits="userSpaceOnUse">
<stop stop-color="#808080" stop-opacity="0.25"/>
<stop offset="0.54" stop-color="#808080" stop-opacity="0.12"/>
<stop offset="1" stop-color="#808080" stop-opacity="0.1"/>
</linearGradient>
<linearGradient id="paint3_linear" x1="69520.2" y1="93763.7" x2="69520.2" y2="30407.1" gradientUnits="userSpaceOnUse">
<stop stop-color="#808080" stop-opacity="0.25"/>
<stop offset="0.54" stop-color="#808080" stop-opacity="0.12"/>
<stop offset="1" stop-color="#808080" stop-opacity="0.1"/>
</linearGradient>
<clipPath id="clip0">
<rect width="364" height="276" fill="white"/>
</clipPath>
</defs>
</svg>
