<svg width="26" height="27" viewBox="0 0 26 27" fill="none" xmlns="http://www.w3.org/2000/svg">
<path fill-rule="evenodd" clip-rule="evenodd" d="M12.2581 26.4201H13.9319C14.191 26.421 14.4461 26.3557 14.673 26.2305C14.8999 26.1053 15.0911 25.9243 15.2286 25.7046C15.2932 25.6013 16.0758 24.3098 16.4685 23.5349L17.8013 22.9847C18.5891 23.2378 19.9917 23.5891 20.2139 23.6408C20.4663 23.6988 20.7293 23.6918 20.9782 23.6205C21.2272 23.5491 21.4539 23.4156 21.6372 23.2327L22.8228 22.047C23.0058 21.8638 23.1392 21.637 23.2106 21.3881C23.282 21.1391 23.289 20.8761 23.2309 20.6238C23.1999 20.4972 22.8331 19.0274 22.5748 18.2112L23.1147 16.8732C23.8508 16.496 25.0933 15.7547 25.2844 15.6333C25.5034 15.4963 25.6839 15.3059 25.809 15.08C25.9342 14.854 25.9999 14.6 25.9999 14.3418V12.6679C25.9999 12.4097 25.9342 12.1557 25.809 11.9297C25.6839 11.7038 25.5034 11.5134 25.2844 11.3764C25.1811 11.3118 23.8896 10.5292 23.1147 10.1365L22.5645 8.80369C22.8176 8.01585 23.1689 6.61325 23.2206 6.39111C23.2789 6.13873 23.272 5.87567 23.2006 5.62669C23.1292 5.3777 22.9956 5.15097 22.8125 4.96784L21.6268 3.78222C21.4436 3.59924 21.2168 3.4658 20.9679 3.39441C20.7189 3.32303 20.4559 3.31604 20.2036 3.3741C20.077 3.40509 18.6072 3.77189 17.791 4.03019L16.4581 3.48C16.081 2.74383 15.3397 1.50138 15.2183 1.31023C15.0812 1.09131 14.8908 0.910789 14.6649 0.785632C14.439 0.660475 14.185 0.594784 13.9267 0.594727H12.2529C11.9946 0.594784 11.7406 0.660475 11.5147 0.785632C11.2888 0.910789 11.0984 1.09131 10.9614 1.31023C10.8968 1.41356 10.1141 2.70509 9.72151 3.48L8.38865 4.03019C7.60082 3.77705 6.19821 3.42576 5.97607 3.3741C5.7237 3.31579 5.46064 3.32266 5.21165 3.39406C4.96266 3.46546 4.73593 3.59903 4.55281 3.78222L3.36718 4.96784C3.1842 5.15111 3.05076 5.37785 2.97938 5.62679C2.90799 5.87573 2.901 6.13873 2.95906 6.39111C2.99006 6.51768 3.35685 7.98744 3.61516 8.80369L3.06496 10.1365C2.32879 10.5137 1.08634 11.255 0.895195 11.3764C0.676267 11.5134 0.49575 11.7038 0.370593 11.9297C0.245436 12.1557 0.179745 12.4097 0.179688 12.6679V14.3469C0.179745 14.6052 0.245436 14.8592 0.370593 15.0851C0.49575 15.311 0.676267 15.5014 0.895195 15.6385C0.998517 15.703 2.29005 16.4857 3.06496 16.8783L3.61516 18.2112C3.36202 18.999 3.01072 20.4016 2.95906 20.6238C2.90075 20.8761 2.90762 21.1392 2.97902 21.3882C3.05042 21.6372 3.184 21.8639 3.36718 22.047L4.55281 23.2327C4.73607 23.4156 4.96281 23.5491 5.21175 23.6205C5.46069 23.6918 5.72369 23.6988 5.97607 23.6408C6.10264 23.6098 7.5724 23.243 8.38865 22.9847L9.72667 23.5349C10.1038 24.271 10.8451 25.5135 10.9665 25.7046C11.1036 25.9236 11.294 26.1041 11.5199 26.2292C11.7458 26.3544 11.9998 26.4201 12.2581 26.4201ZM13.0898 18.7192C15.9682 18.7192 18.3016 16.3858 18.3016 13.5074C18.3016 10.629 15.9682 8.29566 13.0898 8.29566C10.2115 8.29566 7.87807 10.629 7.87807 13.5074C7.87807 16.3858 10.2115 18.7192 13.0898 18.7192Z" fill="#5762D5"/>
</svg>
