<svg width="63" height="78" viewBox="0 0 63 78" fill="none" xmlns="http://www.w3.org/2000/svg">
<g filter="url(#filter0_d)">
<path d="M34.3591 69.3871C19.4042 69.3871 14.937 59.6024 12.6436 55.6787C10.3503 51.755 7.57568 45.0914 6.80724 41.1555C6.03881 37.2195 11.0347 33.8257 14.2721 37.2195C17.5094 40.6132 17.0046 42.9615 17.3513 43.4819C17.698 44.0023 17.5294 17.9375 17.5294 9.9856C17.5294 2.03374 27.573 2.52402 27.573 9.9856V25.4124C27.573 18.6332 37.4336 18.5422 37.4336 25.4124C37.4336 18.5422 46.9815 18.59 46.9815 25.4124V29.6488C46.9815 23.0711 56.728 21.8839 56.728 30.7097C56.728 39.5354 56.5417 47.0265 56.2107 50.1143C55.8798 53.2021 53.2818 69.3871 34.3591 69.3871Z" fill="white"/>
<path d="M12.6436 55.6787L11.7803 56.1833L12.6436 55.6787ZM45.9815 33.963C45.9815 34.5153 46.4292 34.963 46.9815 34.963C47.5338 34.963 47.9815 34.5153 47.9815 33.963H45.9815ZM36.4336 33.963C36.4336 34.5153 36.8813 34.963 37.4336 34.963C37.9859 34.963 38.4336 34.5153 38.4336 33.963H36.4336ZM26.573 33.963C26.573 34.5153 27.0207 34.963 27.573 34.963C28.1253 34.963 28.573 34.5153 28.573 33.963H26.573ZM6.80724 41.1555L7.78871 40.9638L6.80724 41.1555ZM11.7803 56.1833C12.8915 58.0845 14.6678 61.682 18.0854 64.7486C21.542 67.8501 26.6354 70.3871 34.3591 70.3871V68.3871C27.1279 68.3871 22.5102 66.0318 19.4211 63.26C16.2931 60.4533 14.6891 57.1967 13.507 55.1741L11.7803 56.1833ZM34.3591 70.3871C44.1643 70.3871 49.8459 66.1666 53.0801 61.4763C56.2742 56.8441 57.0323 51.8325 57.205 50.2209L55.2164 50.0078C55.0582 51.484 54.3518 56.1088 51.4336 60.341C48.5553 64.5151 43.4766 68.3871 34.3591 68.3871V70.3871ZM57.205 50.2209C57.5427 47.0708 57.728 39.5254 57.728 30.7097H55.728C55.728 39.5455 55.5407 46.9823 55.2164 50.0078L57.205 50.2209ZM57.728 30.7097C57.728 28.3209 57.0663 26.483 55.9523 25.2309C54.8355 23.9756 53.3362 23.3933 51.8483 23.4029C48.8841 23.4222 45.9815 25.7883 45.9815 29.6488H47.9815C47.9815 26.9316 49.9522 25.4153 51.8613 25.4029C52.81 25.3968 53.7473 25.7614 54.458 26.5602C55.1715 27.3622 55.728 28.6855 55.728 30.7097H57.728ZM45.9815 29.6488V33.963H47.9815V29.6488H45.9815ZM47.9815 29.6488V25.4124H45.9815V29.6488H47.9815ZM47.9815 25.4124C47.9815 23.4588 47.2906 21.9073 46.181 20.8456C45.0844 19.7962 43.6372 19.2812 42.2101 19.2777C40.7828 19.2741 39.3334 19.782 38.2347 20.8315C37.1232 21.8933 36.4336 23.4489 36.4336 25.4124H38.4336C38.4336 23.9408 38.9375 22.9261 39.6162 22.2777C40.3077 21.6172 41.2453 21.2753 42.2051 21.2777C43.1649 21.2801 44.1047 21.6269 44.7983 22.2906C45.479 22.9419 45.9815 23.9548 45.9815 25.4124H47.9815ZM36.4336 25.4124V33.963H38.4336V25.4124H36.4336ZM38.4336 25.4124C38.4336 23.4383 37.7166 21.8812 36.5704 20.8252C35.4398 19.7836 33.9548 19.2871 32.4987 19.2939C31.0428 19.3006 29.5617 19.8104 28.4349 20.852C27.2926 21.9079 26.573 23.4571 26.573 25.4124H28.573C28.573 23.9781 29.0859 22.9738 29.7925 22.3206C30.5146 21.6531 31.4987 21.2985 32.5079 21.2938C33.517 21.2892 34.4971 21.6344 35.2153 22.2962C35.918 22.9435 36.4336 23.9514 36.4336 25.4124H38.4336ZM26.573 25.4124V33.963H28.573V25.4124H26.573ZM28.573 9.9856C28.573 5.71796 25.635 3.28053 22.5756 3.20586C21.0647 3.16898 19.5359 3.71305 18.3864 4.87979C17.2308 6.05272 16.5294 7.78061 16.5294 9.9856H18.5294C18.5294 8.21466 19.0835 7.02189 19.8111 6.28346C20.5447 5.53885 21.5269 5.18086 22.5268 5.20526C24.4892 5.25316 26.573 6.79166 26.573 9.9856H28.573ZM16.5294 9.9856C16.5294 14.0401 16.5716 22.395 16.5704 29.9107C16.5698 33.6327 16.5583 37.085 16.5255 39.5727C16.509 40.8184 16.4873 41.8129 16.4594 42.4761C16.4452 42.8127 16.4303 43.0418 16.4162 43.171C16.4074 43.2525 16.4049 43.2348 16.4211 43.1782C16.4266 43.1592 16.4403 43.1139 16.4665 43.057C16.4847 43.0174 16.5503 42.8776 16.6959 42.7457C16.8765 42.5822 17.2334 42.3999 17.6623 42.5363C17.9869 42.6395 18.1448 42.8694 18.1835 42.9274L16.5191 44.0364C16.5632 44.1025 16.7264 44.3373 17.0563 44.4422C17.4906 44.5803 17.8526 44.3965 18.0384 44.2282C18.1892 44.0917 18.2599 43.944 18.2831 43.8935C18.3144 43.8256 18.3331 43.7663 18.3435 43.7302C18.3794 43.6049 18.3956 43.4694 18.4046 43.3866C18.4262 43.1873 18.4432 42.9021 18.4576 42.5602C18.4868 41.8666 18.5088 40.848 18.5253 39.5991C18.5583 37.0975 18.5698 33.6341 18.5704 29.911C18.5716 22.5364 18.5294 13.883 18.5294 9.9856H16.5294ZM18.1835 42.9274C18.251 43.0288 18.2513 43.0932 18.2303 42.9943C18.2126 42.9112 18.1965 42.802 18.1681 42.6126C18.1145 42.256 18.0357 41.7503 17.8538 41.1418C17.4853 39.9093 16.7197 38.3365 14.9956 36.5292L13.5485 37.9097C15.0618 39.4962 15.6625 40.7945 15.9376 41.7146C16.0774 42.1824 16.1398 42.5735 16.1902 42.9096C16.2138 43.0666 16.2405 43.2527 16.2742 43.4109C16.3045 43.5533 16.3649 43.8049 16.5191 44.0364L18.1835 42.9274ZM14.9956 36.5292C13.0196 34.4577 10.4405 34.4533 8.53045 35.5769C6.66824 36.6723 5.34752 38.8974 5.82577 41.3471L7.78871 40.9638C7.49853 39.4775 8.29153 38.0378 9.54448 37.3007C10.7496 36.5918 12.2872 36.5874 13.5485 37.9097L14.9956 36.5292ZM5.82577 41.3471C6.62177 45.4242 9.44876 52.1942 11.7803 56.1833L13.507 55.1741C11.2519 51.3158 8.52959 44.7587 7.78871 40.9638L5.82577 41.3471ZM28.573 25.4124V9.9856H26.573V25.4124H28.573Z" fill="black"/>
</g>
<defs>
<filter id="filter0_d" x="0.727051" y="0.204102" width="62.0008" height="77.183" filterUnits="userSpaceOnUse" color-interpolation-filters="sRGB">
<feFlood flood-opacity="0" result="BackgroundImageFix"/>
<feColorMatrix in="SourceAlpha" type="matrix" values="0 0 0 0 0 0 0 0 0 0 0 0 0 0 0 0 0 0 127 0"/>
<feOffset dy="2"/>
<feGaussianBlur stdDeviation="2.5"/>
<feColorMatrix type="matrix" values="0 0 0 0 0 0 0 0 0 0 0 0 0 0 0 0 0 0 0.4 0"/>
<feBlend mode="normal" in2="BackgroundImageFix" result="effect1_dropShadow"/>
<feBlend mode="normal" in="SourceGraphic" in2="effect1_dropShadow" result="shape"/>
</filter>
</defs>
</svg>
