<svg width="30" height="40" viewBox="0 0 30 40" fill="none" xmlns="http://www.w3.org/2000/svg">
<path d="M25.831 13.8226H23.9933V10.1473C23.9933 5.07534 19.877 0.958984 14.805 0.958984C9.73308 0.958984 5.61673 5.07534 5.61673 10.1473V13.8226H3.77907C1.75765 13.8226 0.10376 15.4765 0.10376 17.4979V35.8745C0.10376 37.8959 1.75765 39.5498 3.77907 39.5498H25.831C27.8524 39.5498 29.5063 37.8959 29.5063 35.8745V17.4979C29.5063 15.4765 27.8524 13.8226 25.831 13.8226ZM14.805 30.3615C12.7836 30.3615 11.1297 28.7076 11.1297 26.6862C11.1297 24.6648 12.7836 23.0109 14.805 23.0109C16.8264 23.0109 18.4803 24.6648 18.4803 26.6862C18.4803 28.7076 16.8264 30.3615 14.805 30.3615ZM20.5018 13.8226H9.10828V10.1473C9.10828 7.00488 11.6626 4.45053 14.805 4.45053C17.9474 4.45053 20.5018 7.00488 20.5018 10.1473V13.8226Z" fill="black"/>
</svg>
