<svg width="31" height="29" viewBox="0 0 31 29" fill="none" xmlns="http://www.w3.org/2000/svg">
<path d="M17.5367 26.5627C15.0183 27.0068 12.3693 26.7071 9.98187 25.6702C6.87752 24.3223 4.50856 21.8924 3.31028 18.8288C2.16359 15.8967 2.24551 12.5426 3.53485 9.62586C4.78189 6.80499 7.00945 4.66134 9.8077 3.58967C12.4785 2.56672 15.5232 2.6633 18.1603 3.85409C20.6986 4.99962 22.6164 7.02622 23.5613 9.55943C24.4603 11.9695 24.3483 14.7046 23.2549 17.0621C22.2097 19.317 20.3851 21.0088 18.1156 21.8257C15.9649 22.5992 13.5394 22.4719 11.4618 21.4752C9.49086 20.5296 8.02643 18.9049 7.33809 16.8999C6.68872 15.008 6.83382 12.8917 7.73673 11.0933C8.58374 9.40628 10.0095 8.17029 11.7515 7.6127C13.3859 7.09016 15.1945 7.25524 16.7133 8.06736C18.1155 8.81808 19.1215 10.0466 19.5451 11.5267C19.9403 12.9101 19.749 14.4121 19.0203 15.6489C18.362 16.7659 17.3269 17.5363 16.1053 17.8192C14.9778 18.0791 13.7473 17.8453 12.8086 17.1925C11.9806 16.6162 11.4554 15.7657 11.3309 14.7983C11.2146 13.8958 11.5443 12.9085 12.171 12.2835C12.6996 11.7561 13.3905 11.5181 14.1151 11.6131C14.7176 11.6925 15.1417 12.245 15.0626 12.8472C14.9835 13.4498 14.4302 13.8741 13.8289 13.7948C13.797 13.7905 13.7781 13.7877 13.7248 13.841C13.5808 13.9845 13.484 14.2938 13.5126 14.5164C13.5584 14.8705 13.7439 15.1629 14.0643 15.3853C14.4951 15.6851 15.0878 15.7927 15.6095 15.6753C16.4144 15.4889 16.8774 14.9506 17.1242 14.5321C17.542 13.8228 17.6565 12.9257 17.4286 12.1316C17.1712 11.2288 16.548 10.4744 15.6752 10.0072C14.6789 9.47414 13.4936 9.36415 12.4223 9.70785C11.2481 10.0834 10.2827 10.9259 9.70359 12.0798C9.06406 13.3531 8.96067 14.8493 9.41909 16.1853C9.91429 17.6282 10.9777 18.8026 12.4131 19.4912C13.9638 20.2348 15.7702 20.3314 17.3702 19.755C19.082 19.1387 20.463 17.8538 21.2589 16.1364C22.1065 14.3084 22.1941 12.1912 21.4994 10.3277C20.7617 8.34827 19.2541 6.76119 17.2555 5.85878C15.1489 4.9079 12.7214 4.82998 10.5947 5.64371C8.34792 6.5043 6.55546 8.23402 5.54746 10.5148C4.49367 12.8991 4.42501 15.6372 5.35984 18.0271C6.3425 20.5408 8.29557 22.5381 10.8586 23.6517C13.5204 24.8079 16.5687 24.866 19.2218 23.8109C23.9835 21.917 26.9814 16.7628 26.3492 11.555C26.276 10.9519 26.7035 10.4051 27.309 10.3305C27.9122 10.2573 28.4604 10.687 28.5333 11.2904C29.2836 17.4732 25.7096 23.5992 20.0347 25.8558C19.2267 26.1764 18.3893 26.4124 17.5367 26.5627Z" fill="#FFFFFF"/>
</svg>
