<svg xmlns="http://www.w3.org/2000/svg" viewBox="0 0 65.83 65.83"><defs><style>.cls-1{fill:none;stroke:#fff;stroke-miterlimit:10;stroke-width:6px;}</style></defs><title>Asset 2</title><g id="Layer_2" data-name="Layer 2"><g id="Layer_1-2" data-name="Layer 1"><path d="M6,62.83a3,3,0,0,1-3-3V53.11C3,41.62,22.81,36.65,32.92,36.65s29.91,5,29.91,16.46v6.72a3,3,0,0,1-3,3ZM32.92,35.92A16.46,16.46,0,1,1,49.38,19.46,16.48,16.48,0,0,1,32.92,35.92Z"/><path class="cls-1" d="M6,62.83a3,3,0,0,1-3-3V53.11C3,41.62,22.81,36.65,32.92,36.65s29.91,5,29.91,16.46v6.72a3,3,0,0,1-3,3ZM32.92,35.92A16.46,16.46,0,1,1,49.38,19.46,16.48,16.48,0,0,1,32.92,35.92Z"/></g></g></svg>