<svg width="24" height="23" viewBox="0 0 24 23" fill="none" xmlns="http://www.w3.org/2000/svg">
<path d="M11.9365 2.33742C11.9601 2.28099 12.0401 2.28099 12.0637 2.33742L14.755 8.7631C14.765 8.78684 14.7873 8.80307 14.813 8.80519L21.7558 9.37914C21.8168 9.38418 21.8415 9.46021 21.7951 9.50013L16.5156 14.0454C16.4961 14.0622 16.4876 14.0884 16.4935 14.1135L18.0931 20.8939C18.1071 20.9534 18.0425 21.0004 17.9902 20.9686L12.0359 17.3521C12.0139 17.3387 11.9863 17.3387 11.9643 17.3521L6.01007 20.9686C5.95779 21.0004 5.8931 20.9534 5.90715 20.8939L7.50675 14.1135C7.51266 14.0884 7.50413 14.0622 7.48463 14.0454L2.2051 9.50013C2.15874 9.46021 2.18344 9.38418 2.24441 9.37914L9.18726 8.80519C9.21291 8.80307 9.23525 8.78684 9.24519 8.7631L11.9365 2.33742Z" stroke="#2FC48E" stroke-width="2.75853"/>
</svg>
